<?xml version="1.0" encoding="UTF-8" standalone="no"?>
<svg
   version="1.1"
   width="169.08"
   height="169.40152"
   viewBox="358.339 259.0527 169.08001 169.40152"
   id="svg97"
   sodipodi:docname="bde-e.svg"
   inkscape:version="1.4.2 (f4327f4, 2025-05-13)"
   inkscape:export-filename="bde-e.svg"
   inkscape:export-xdpi="96"
   inkscape:export-ydpi="96"
   xmlns:inkscape="http://www.inkscape.org/namespaces/inkscape"
   xmlns:sodipodi="http://sodipodi.sourceforge.net/DTD/sodipodi-0.dtd"
   xmlns="http://www.w3.org/2000/svg"
   xmlns:svg="http://www.w3.org/2000/svg">
  <sodipodi:namedview
     id="namedview97"
     pagecolor="#505050"
     bordercolor="#eeeeee"
     borderopacity="1"
     inkscape:showpageshadow="0"
     inkscape:pageopacity="0"
     inkscape:pagecheckerboard="0"
     inkscape:deskcolor="#505050"
     inkscape:zoom="4"
     inkscape:cx="61.625"
     inkscape:cy="84.125"
     inkscape:window-width="2560"
     inkscape:window-height="1377"
     inkscape:window-x="1912"
     inkscape:window-y="113"
     inkscape:window-maximized="1"
     inkscape:current-layer="svg97" />
  <defs
     id="defs15">
    <inkscape:path-effect
       effect="fillet_chamfer"
       id="path-effect97"
       is_visible="true"
       lpeversion="1"
       nodesatellites_param="F,0,0,1,0,0,0,1 @ F,0,0,1,0,0,0,1 @ F,0,0,1,0,0,0,1 @ F,0,0,1,0,0,0,1 @ F,0,0,1,0,0,0,1 @ F,0,0,1,0,0,0,1 @ F,0,0,1,0,0,0,1 @ F,0,0,1,0,0,0,1 @ F,0,0,1,0,0,0,1"
       radius="0"
       unit="px"
       method="auto"
       mode="F"
       chamfer_steps="1"
       flexible="false"
       use_knot_distance="true"
       apply_no_radius="true"
       apply_with_radius="true"
       only_selected="false"
       hide_knots="false" />
    <clipPath
       id="clip_0">
      <path
         transform="matrix(0.1,0,0,-0.1,0,842)"
         d="m 1007.4,2921 h 40.2032 v 58.1993 H 1007.4 Z"
         id="path1" />
    </clipPath>
    <clipPath
       id="clip_1">
      <path
         transform="matrix(0.1,0,0,-0.1,0,842)"
         d="m 977.398,2921 h 30.6017 v 41.3985 H 977.398 Z"
         id="path2" />
    </clipPath>
    <clipPath
       id="clip_2">
      <path
         transform="matrix(0.1,0,0,-0.1,0,842)"
         d="m 933,2921 h 39 v 41.3985 h -39 z"
         id="path3" />
    </clipPath>
    <clipPath
       id="clip_3">
      <path
         transform="matrix(0.1,0,0,-0.1,0,842)"
         d="m 897,2921 h 34.8008 v 41.3985 H 897 Z"
         id="path4" />
    </clipPath>
    <clipPath
       id="clip_4">
      <path
         transform="matrix(0.1,0,0,-0.1,0,842)"
         d="m 852.602,2921 h 40.1992 v 41.3985 H 852.602 Z"
         id="path5" />
    </clipPath>
    <clipPath
       id="clip_5">
      <path
         transform="matrix(0.1,0,0,-0.1,0,842)"
         d="m 823.801,2921 h 29.3984 v 40.8009 H 823.801 Z"
         id="path6" />
    </clipPath>
    <clipPath
       id="clip_6">
      <path
         transform="matrix(0.1,0,0,-0.1,0,842)"
         d="m 780.602,2570.6 h 285 v 277.199 h -285 z"
         id="path7" />
    </clipPath>
    <clipPath
       id="clip_7">
      <path
         transform="matrix(0.1,0,0,-0.1,0,842)"
         d="M 778.199,2319.8 H 1068 v 249 H 778.199 Z"
         id="path8" />
    </clipPath>
    <clipPath
       id="clip_8">
      <path
         transform="matrix(0.1,0,0,-0.1,0,842)"
         d="m 2865,1647.8 h 117 v 117 h -117 z"
         id="path9" />
    </clipPath>
    <clipPath
       id="clip_9">
      <path
         transform="matrix(0.1,0,0,-0.1,0,842)"
         d="m 3113.4,948.199 h 19.8008 v 29.40228 H 3113.4 Z"
         id="path10" />
    </clipPath>
    <clipPath
       id="clip_10">
      <path
         transform="matrix(0.1,0,0,-0.1,0,842)"
         d="m 3098.4,948.199 h 15.6015 v 21 H 3098.4 Z"
         id="path11" />
    </clipPath>
    <clipPath
       id="clip_11">
      <path
         transform="matrix(0.1,0,0,-0.1,0,842)"
         d="m 3076.8,948.199 h 19.1993 v 21 H 3076.8 Z"
         id="path12" />
    </clipPath>
    <clipPath
       id="clip_12">
      <path
         transform="matrix(0.1,0,0,-0.1,0,842)"
         d="m 3058.8,948.199 h 17.3986 v 21 H 3058.8 Z"
         id="path13" />
    </clipPath>
    <clipPath
       id="clip_13">
      <path
         transform="matrix(0.1,0,0,-0.1,0,842)"
         d="m 3037.2,948.199 h 20.4024 v 21 H 3037.2 Z"
         id="path14" />
    </clipPath>
    <clipPath
       id="clip_14">
      <path
         transform="matrix(0.1,0,0,-0.1,0,842)"
         d="m 3023.4,948.199 h 14.4023 v 20.40228 H 3023.4 Z"
         id="path15" />
    </clipPath>
  </defs>
  <path
     d="m 527.179,262.5327 v -0.48 l -0.24,-0.48 v -0.48 l -1.2,-1.2 -0.48,-0.24 h -165 l -0.48,0.24 -1.2,1.2 v 0.48 l -0.24,0.96 v 163.5 l 0.24,0.48 v 0.48 l 1.2,1.2 0.48,0.24 h 164.04 c 1.657,0.134 1.392,-0.359 2.64,-1.44 v -0.48 l 0.24,-0.96 v -163.02"
     fill="#ffffff"
     fill-rule="evenodd"
     id="path16"
     sodipodi:nodetypes="ccccccccccccccccccccc"
     style="stroke-width:0.1" />
  <path
     stroke-width="0.24"
     stroke-linecap="round"
     stroke-linejoin="round"
     fill="none"
     stroke="#1f1a17"
     d="m 527.299,262.0527 v -0.48 l -0.24,-0.48 v -0.48 l -1.2,-1.2 -0.48,-0.24 h -165 l -0.48,0.24 -1.2,1.2 v 0.48 l -0.24,0.96 v 163.5 l 0.24,0.48 v 0.48 l 1.2,1.2 0.48,0.24 h 164.04 c 1.657,0.134 1.392,-0.359 2.64,-1.44 v -0.48 l 0.24,-0.96 v -163.02"
     id="path17" />
  <path
     d="m 390.379,394.1127 26.34,12.96 v -26.16 l -26.34,13.2"
     fill="#b6b2ab"
     fill-rule="evenodd"
     id="path18"
     style="stroke-width:0.1" />
  <path
     d="m 402.139,395.0727 h 11.4602 v -2.16017 H 402.139 Z"
     fill="#0052ba"
     id="path19"
     style="stroke-width:0.1" />
  <path
     d="m 495.139,394.1127 -26.58,12.96 v -26.16 l 26.58,13.2"
     fill="#b6b2ab"
     fill-rule="evenodd"
     id="path20"
     style="stroke-width:0.1" />
  <path
     d="m 471.919,392.9127 h 4.56 v -4.56 h 2.4 v 4.56 h 4.56 v 2.16 h -4.56 v 4.8 h -2.4 v -4.8 h -4.56 v -2.16"
     fill="#0052ba"
     fill-rule="evenodd"
     id="path21"
     style="stroke-width:0.1" />
  <path
     d="m 450.559,343.7127 v -1.68 l -0.48,-1.44 -0.72,-1.44 -0.96,-1.26 -1.2,-0.96 -1.2,-0.72 -1.44,-0.24 -1.68,-0.24 -1.68,0.24 -1.44,0.24 -1.2,0.72 -1.2,0.96 -0.96,1.26 -0.72,1.44 -0.48,1.44 v 3.12 c 1.47,7.616 13.79844,8.61092 15.36,0 v 0 -1.44"
     fill="#ffffff"
     fill-rule="evenodd"
     id="path22"
     sodipodi:nodetypes="cccccccccccccccccccc"
     style="stroke-width:0.1" />
  <path
     d="m 478.639,362.4327 v -14.64 c -0.01,-3.53357 2.84788,-5.25364 6,-5.28 h 14.1 c 2.59268,0.0317 4.02511,1.69187 4.04207,3.02216 l 0.0379,19.53784 v 0.24 c 0.0143,1.30339 -1.92655,3.10169 -4.08,3.12 h -14.82 c -3.29907,0.004 -5.28193,-2.75188 -5.28,-6"
     fill="#1f1a17"
     fill-rule="evenodd"
     id="path24"
     sodipodi:nodetypes="cccccccccc"
     style="stroke-width:0.1" />
  <path
     d="m 4827,4925 c -0.2573,24.8168 7.1407,48.2599 44.4896,48.2573 l 135.4623,0.3859 c 26.1891,0.058 47.3825,-12.8759 47.4481,-48.6432 v -127.2 c 0.1809,-30.5056 -21.1528,-50.6903 -50.4,-50.4 h -126.6 c -34.4883,0.1004 -50.51,16.3153 -50.4,50.4 V 4925"
     fill="#b6b2ab"
     fill-rule="evenodd"
     id="path25"
     transform="matrix(0.1,0,0,-0.1,-0.701,841.0127)"
     inkscape:path-effect="#path-effect97"
     inkscape:original-d="m 4827,4925 c -0.2573,24.8168 7.1407,48.2599 44.4896,48.2573 l 135.4623,0.3859 c 26.1891,0.058 47.3825,-12.8759 47.4481,-48.6432 v -127.2 c 0.1809,-30.5056 -21.1528,-50.6903 -50.4,-50.4 h -126.6 c -34.4883,0.1004 -50.51,16.3153 -50.4,50.4 V 4925"
     sodipodi:nodetypes="ccccccccc" />
  <g
     id="g54">
    <path
       d="m 377.659,362.4327 v -13.92 c -0.007,-4.52037 3.79805,-5.93368 6.29524,-5.96685 l 12.66476,-0.0331 c 2.18336,-0.0122 5.60439,2.07487 5.59,3.36187 l 0.007,18.82248 c -0.006,2.01875 -2.60499,3.70336 -4.39734,3.73565 H 383.899 c -2.15976,-0.009 -6.23343,-0.29714 -6.24,-6"
       fill="#1f1a17"
       fill-rule="evenodd"
       id="path26"
       sodipodi:nodetypes="ccccccccc"
       style="stroke-width:0.1" />
    <path
       d="m 381.019,348.5127 c -0.004,-3.29805 2.15421,-4.80079 4.28501,-4.8 v 0 H 400.219 c 2.39876,-0.006 3.56896,1.45029 3.57125,4.56563 l -0.0312,13.67437 c 0.0302,2.5379 -1.81012,4.32938 -4.98,4.32 h -13.44 c -3.34994,-0.007 -4.31957,-2.42219 -4.32,-5.04 v -12.72"
       fill="#b6b2ab"
       fill-rule="evenodd"
       id="path27"
       sodipodi:nodetypes="cccccccccc"
       style="stroke-width:0.1" />
  </g>
  <path
     d="m 470.239,325.4127 v -14.64 c 0.002,-3.18059 3.03035,-5.27063 6,-5.28 h 13.38 c 2.231,0.008 4.88681,1.61769 4.86567,2.90946 l 0.001,19.39642 v 0 c 0,0 -1.90464,3.83945 -4.86629,3.85412 h -14.34 c -3.3175,-0.0495 -5.07159,-3.04561 -5.04,-6.24"
     fill="#1f1a17"
     fill-rule="evenodd"
     id="path28"
     sodipodi:nodetypes="cccccccccc"
     style="stroke-width:0.1" />
  <path
     d="m 473.599,311.7327 c 0.0865,-2.97519 2.16185,-5.022 4.8,-5.04 h 12.88282 c 3.04427,-0.004 4.82603,2.41938 4.81718,5.04 v 13.44 c 0.005,3.31089 -2.31191,4.29807 -5.04,4.32 h -12.66 c -2.37301,-0.01 -4.77936,-1.21073 -4.8,-3.6 v -14.16"
     fill="#b6b2ab"
     fill-rule="evenodd"
     id="path29"
     sodipodi:nodetypes="ccccccccc"
     style="stroke-width:0.1" />
  <path
     d="m 475.279,317.9727 5.28,-5.28 v 3.12 h 2.4 v 0.96 h -3.36 v -1.2 l -2.64,2.4 2.64,2.64 v -1.44 h 3.36 v 1.2 h -2.4 v 2.88 l -5.28,-5.28"
     fill="#1f1a17"
     fill-rule="evenodd"
     id="path30"
     style="stroke-width:0.1" />
  <path
     d="m 486.799,315.8127 v 0.96 h 3.3 v -1.2 l 2.64,2.4 -2.64,2.64 v -1.44 h -3.3 v 1.2 h 2.1 v 2.88 l 5.28,-5.28 -5.28,-5.28 v 3.12 h -2.1"
     fill="#1f1a17"
     fill-rule="evenodd"
     id="path31"
     style="stroke-width:0.1" />
  <path
     d="m 374.779,346.8327 -2.88,1.92 2.88,1.92 v -0.72 l -1.68,-1.2 1.68,-1.2 v -0.72"
     fill="#0052ba"
     fill-rule="evenodd"
     id="path32"
     style="stroke-width:0.1" />
  <path
     d="m 374.779,344.9127 -5.52,3.84 5.52,3.6 v -0.72 l -4.32,-2.88 4.32,-2.88 v -0.96"
     fill="#0052ba"
     fill-rule="evenodd"
     id="path33"
     style="stroke-width:0.1" />
  <path
     d="m 361.819,344.9127 5.52,3.84 -5.52,3.6 v -0.72 l 4.32,-2.88 -4.32,-2.88 v -0.96"
     fill="#0052ba"
     fill-rule="evenodd"
     id="path34"
     style="stroke-width:0.1" />
  <path
     d="m 361.819,346.8327 2.88,1.92 -2.88,1.92 v -0.72 l 1.68,-1.2 -1.68,-1.2 v -0.72"
     fill="#0052ba"
     fill-rule="evenodd"
     id="path35"
     style="stroke-width:0.1" />
  <path
     d="m 504.739,308.8527 -5.76,3.6 5.76,3.84 v -0.96 l -4.56,-2.88 4.56,-2.88 v -0.72"
     fill="#0052ba"
     fill-rule="evenodd"
     id="path36"
     style="stroke-width:0.1" />
  <path
     d="m 504.739,310.5327 -3.12,1.92 3.12,1.92 v -0.72 l -1.92,-1.2 1.92,-1.2 v -0.72"
     fill="#0052ba"
     fill-rule="evenodd"
     id="path37"
     style="stroke-width:0.1" />
  <path
     d="m 506.419,310.5327 3.12,1.92 -3.12,1.92 v -0.72 l 1.92,-1.2 -1.92,-1.2 v -0.72"
     fill="#0052ba"
     fill-rule="evenodd"
     id="path38"
     style="stroke-width:0.1" />
  <path
     d="m 506.419,308.8527 5.76,3.6 -5.76,3.84 v -0.96 l 4.56,-2.88 -4.56,-2.88 v -0.72"
     fill="#0052ba"
     fill-rule="evenodd"
     id="path39"
     style="stroke-width:0.1" />
  <path
     d="m 386.779,312.4527 -4.08,2.64 v -0.48 l 3.12,-2.16 -3.12,-1.92 v -0.72 l 4.08,2.64"
     fill="#0052ba"
     fill-rule="evenodd"
     id="path40"
     style="stroke-width:0.1" />
  <path
     d="m 371.659,312.4527 4.32,2.64 v -0.48 l -3.36,-2.16 3.36,-1.92 v -0.72 l -4.32,2.64"
     fill="#0052ba"
     fill-rule="evenodd"
     id="path41"
     style="stroke-width:0.1" />
  <path
     d="m 379.819,312.4527 1.68,-0.96 1.2,0.72 v -0.48 l -0.72,-0.48 0.48,-0.24 -0.24,-0.48 -0.72,0.24 v -0.72 l -0.24,-0.48 v 1.44 l -1.68,0.96 v -1.92 l 1.2,-0.72 -0.48,-0.24 -0.72,0.48 v -0.48 h -0.48 v 0.48 l -0.96,-0.48 -0.48,0.24 1.44,0.72 v 1.92 l -1.68,-0.96 v -1.44 l -0.48,0.48 v 0.72 l -0.48,-0.24 -0.24,0.48 0.48,0.24 -0.72,0.48 v 0.48 l 1.2,-0.72 1.68,0.96 -1.68,0.96 -1.2,-0.72 v 0.48 l 0.72,0.48 -0.48,0.24 0.24,0.48 0.48,-0.24 v 0.96 l 0.48,0.24 v -1.44 l 1.68,-0.96 v 1.92 l -1.44,0.72 0.48,0.24 0.96,-0.48 v 0.48 h 0.48 v -0.48 l 0.72,0.48 0.48,-0.24 -1.2,-0.72 v -1.92 l 1.68,0.96 v 1.44 l 0.24,-0.24 v -0.96 l 0.72,0.24 0.24,-0.48 -0.48,-0.24 0.72,-0.48 v -0.48 l -1.2,0.72 -1.68,-0.96"
     fill="#0052ba"
     fill-rule="evenodd"
     id="path42"
     style="stroke-width:0.1" />
  <path
     d="m 405.199,366.2727 h 3.36016 v -5.76017 H 405.199 Z"
     fill="#ef9c9f"
     id="path44"
     style="stroke-width:0.1" />
  <path
     d="m 441.199,378.9927 h 3.36018 v -5.7602 H 441.199 Z"
     fill="#ef9c9f"
     id="path45"
     style="stroke-width:0.1" />
  <path
     d="m 473.839,366.2727 h 3.36017 v -5.76017 H 473.839 Z"
     fill="#ef9c9f"
     id="path46"
     style="stroke-width:0.1" />
  <path
     d="m 465.199,329.4927 h 3.36018 v -5.7602 H 465.199 Z"
     fill="#ef9c9f"
     id="path47"
     style="stroke-width:0.1" />
  <path
     d="m 441.199,319.4127 h 3.36018 v -5.5199 H 441.199 Z"
     fill="#ef9c9f"
     id="path48"
     style="stroke-width:0.1" />
  <path
     d="m 416.479,329.4927 h 3.35977 v -5.7602 H 416.479 Z"
     fill="#ef9c9f"
     id="path49"
     style="stroke-width:0.1" />
  <g
     id="g55"
     transform="translate(11.375,-37.073466)"
     style="display:inline">
    <path
       d="m 377.659,362.4327 v -13.92 c -0.007,-4.52037 3.79805,-5.93368 6.29524,-5.96685 l 12.66476,-0.0331 c 2.18336,-0.0122 5.60439,2.07487 5.59,3.36187 l 0.007,18.82248 c -0.006,2.01875 -2.60499,3.70336 -4.39734,3.73565 H 383.899 c -2.15976,-0.009 -6.23343,-0.29714 -6.24,-6"
       fill="#1f1a17"
       fill-rule="evenodd"
       id="path54"
       sodipodi:nodetypes="ccccccccc"
       style="stroke-width:0.1" />
    <path
       d="m 381.019,348.5127 c -0.004,-3.29805 2.15421,-4.80079 4.28501,-4.8 v 0 H 400.219 c 2.39876,-0.006 3.56896,1.45029 3.57125,4.56563 l -0.0312,13.67437 c 0.0302,2.5379 -1.81012,4.32938 -4.98,4.32 h -13.44 c -3.34994,-0.007 -4.31957,-2.42219 -4.32,-5.04 v -12.72"
       fill="#b6b2ab"
       fill-rule="evenodd"
       id="path55"
       sodipodi:nodetypes="cccccccccc"
       style="stroke-width:0.1" />
  </g>
  <path
     d="m 404.959,317.9727 3.84,-2.16 2.88,1.68 -0.24,-1.2 -1.92,-0.96 1.44,-0.72 -0.72,-0.96 -1.2,0.72 v -2.16 l -0.96,-0.72 v 3.36 l -3.84,2.16 v -4.32 l 3.12,-1.68 -1.2,-0.48 -1.92,0.96 v -1.44 h -0.96 v 1.44 l -1.86,-0.96 -1.2,0.48 3.06,1.68 v 4.32 l -3.78,-2.16 v -3.36 l -0.96,0.72 v 2.16 l -1.2,-0.72 -0.72,0.96 1.2,0.72 -1.68,0.96 -0.24,1.2 2.88,-1.68 3.84,2.16 -3.84,2.16 -2.88,-1.68 0.24,1.2 1.68,1.2 -1.2,0.72 0.72,0.96 1.2,-0.72 v 2.16 l 0.96,0.72 v -3.36 l 3.78,-2.16 v 4.32 l -3.06,1.68 1.2,0.48 1.86,-1.2 v 1.44 h 0.96 v -1.44 l 1.92,1.2 1.2,-0.48 -3.12,-1.68 v -4.32 l 3.84,2.16 v 3.36 l 0.96,-0.72 v -2.16 l 1.2,0.72 0.72,-0.96 -1.44,-0.72 1.92,-1.2 0.24,-1.2 -2.88,1.68 -3.84,-2.16"
     fill="#1f1a17"
     fill-rule="evenodd"
     id="path51"
     style="stroke-width:0.1" />
  <path
     d="m 419.119,403.7127 h 47.2801 V 384.2729 H 419.119 Z"
     fill="#0052ba"
     id="path56"
     style="stroke-width:0.1" />
  <path
     d="m 442.639,384.7527 10.44888,0.0369 c 1.22439,1.4075 3.93254,6.3962 5.39112,9.08306 l -4.56,8.64 c -0.35358,0.37336 -0.98879,0.69289 -1.34281,0.72 l -20.05095,0.007 v 0 0 0 0 0 0 l -5.00624,-9.3669 c 1.55845,-2.82006 5.04,-9.12 5.04,-9.12 h 10.08"
     fill="#ffffff"
     fill-rule="evenodd"
     id="path57"
     sodipodi:nodetypes="ccccccccccccccc"
     style="stroke-width:0.1" />
  <path
     d="m 432.18019,385.43816 0.37881,-0.68546 v 0 0 h 10.56 0.29078 l 0.42922,0.48 v 0 1.2 l -4.08,7.44 4.08,7.44 v 1.2 0 l -0.77859,0.72 v 0 H 432.799 l -0.27376,0.007 v 0 0 0 0 l -5.00624,-9.3669 5.04,-9.12"
     fill="#1f1a17"
     fill-rule="evenodd"
     id="path58"
     sodipodi:nodetypes="ccccccccccccccccccccccc"
     style="stroke-width:0.1" />
  <path
     d="m 445.00774,386.21614 -0.008,-0.98344 -0.46657,-0.48 v 0 h 8.18563 c 0.81262,-0.006 1.08522,0.49394 1.2,0.72 l 4.56,8.4 -4.56,8.64 c -0.17666,0.30269 -0.74209,0.71741 -1.2,0.72 h -8.36531 l 0.71093,-0.74953 -0.002,-0.91485 v 0 l 7.41656,-0.0156 4.08,-7.68 -4.08,-7.68 -7.47124,0.0234"
     fill="#1f1a17"
     fill-rule="evenodd"
     id="path59"
     sodipodi:nodetypes="ccccccccccccccccc"
     style="stroke-width:0.1" />
  <path
     d="m 458.239,404.1927 h -1.2 v 2.88 c -4.50416,-1.8773 -5.51845,4.92085 -1.41534,4.93844 1.36899,0.006 2.63399,-0.40259 2.61534,-2.59488 v -5.22356"
     fill="#1f1a17"
     fill-rule="evenodd"
     id="path60"
     style="stroke-width:0.1"
     sodipodi:nodetypes="cccscc" />
  <path
     d="m 435.46969,410.34738 c -0.91802,1.05458 -2.75394,0.52588 -2.81913,-0.62687 l 4.22844,-0.008 -0.0166,-0.73344 c -0.0203,-3.0072 -5.2634,-2.85485 -5.2634,0 v 0.69226 c 0.0389,1.54732 2.1577,3.48018 5.10135,1.34307 l -1.23069,-0.66721"
     fill="#1f1a17"
     fill-rule="evenodd"
     id="path61"
     style="stroke-width:0.1"
     sodipodi:nodetypes="cccccccc" />
  <path
     d="m 447.8848,409.08561 v 0 c -0.007,-1.05085 -1.0907,-2.33084 -2.44096,-2.33084 v 0 c -1.57701,0 -2.67079,1.14574 -2.67079,2.52061 0,1.44776 1.03277,2.74975 2.67079,2.74975 v 0 c 1.41942,0 2.44992,-0.86765 2.44096,-2.93952"
     fill="#1f1a17"
     fill-rule="evenodd"
     id="path62"
     style="stroke-width:0.0940965"
     sodipodi:nodetypes="cccccccc" />
  <path
     d="m 457.37475,409.36375 c -0.006,-2.35901 -3.50659,-2.29577 -3.50301,0.0519 v 0 c 0.0843,2.40018 3.56535,2.39682 3.50301,-0.0519"
     fill="#ffffff"
     fill-rule="evenodd"
     id="path63"
     style="stroke-width:0.1"
     sodipodi:nodetypes="cccc" />
  <path
     d="m 452.8776,407.1778 -0.6386,1.021 c -0.4184,-0.52188 -2.16932,-0.56128 -2.16,0.69069 v 3.22321 h -1.2 v -5.29528 h 1.2 v 0.23023 c 0.35497,-0.40805 2.27963,-0.45159 2.7986,0.13015"
     fill="#1f1a17"
     fill-rule="evenodd"
     id="path64"
     style="stroke-width:0.0979434"
     sodipodi:nodetypes="ccccccccc" />
  <path
     d="m 447.33892,409.32672 c -0.0527,-2.72009 -3.95554,-2.72009 -3.96593,0 -0.0134,2.78244 4.00513,2.79991 3.96593,0"
     fill="#ffffff"
     fill-rule="evenodd"
     id="path65"
     style="stroke-width:0.1"
     sodipodi:nodetypes="ccc" />
  <path
     d="m 442.399,411.1527 -0.85063,-0.85063 c -3.98033,3.14472 -4.05172,-4.59088 0,-2.15437 l 0.85063,-0.595 c -2.25791,-1.74611 -4.79472,-0.43444 -4.80552,1.65299 -0.003,2.44794 2.08957,3.85151 4.80552,1.94701"
     fill="#1f1a17"
     fill-rule="evenodd"
     id="path66"
     style="stroke-width:0.1"
     sodipodi:nodetypes="cccccc" />
  <path
     d="m 436.06181,408.94801 c -0.0245,-1.67085 -3.47415,-1.90388 -3.46594,0.0312 l 3.46594,-0.0312"
     fill="#ffffff"
     fill-rule="evenodd"
     id="path67"
     style="stroke-width:0.1"
     sodipodi:nodetypes="ccc" />
  <path
     d="m 431.599,407.29877 -0.72,0.96646 c -0.65646,-0.54288 -2.16258,-0.6658 -2.16,0.6764 v 2.93107 h -1.2 v -4.96028 h 1.2 v 0.22547 c 0.18352,-0.47227 2.25766,-0.5324 2.88,0.16088"
     fill="#1f1a17"
     fill-rule="evenodd"
     id="path68"
     style="stroke-width:0.096925"
     sodipodi:nodetypes="ccccccccc" />
  <path
     d="m 429.199,393.8727 4.08,7.68 h 8.88 l -4.08,-7.68 4.08,-7.68 h -8.88 l -4.08,7.68"
     fill="#ffffff"
     fill-rule="evenodd"
     id="path69"
     style="stroke-width:0.1" />
  <path
     d="m 443.599,389.5527 2.4,4.32 -2.47812,4.81781 0.79812,1.42219 3.36,-6.24 -3.36,-6 -0.72,1.68"
     fill="#1f1a17"
     fill-rule="evenodd"
     id="path70"
     sodipodi:nodetypes="ccccccc"
     style="stroke-width:0.1" />
  <path
     d="m 448.38488,279.05955 c 0.002,-7.61709 -10.93169,-7.81669 -10.93749,-0.011 v 0 0 c -0.0283,4.11693 3.46966,5.54394 5.35549,5.54209 v 0 c 3.24643,-0.0444 5.59785,-1.97951 5.582,-5.53105"
     fill="#0052ba"
     fill-rule="evenodd"
     id="path71"
     sodipodi:nodetypes="ccccccc"
     style="stroke-width:0.1" />
  <path
     d="m 443.119,274.0527 v 0 c 2.52189,0.0638 4.84689,2.39445 4.8,4.8 v 0 h -0.96 v 0.48 h 0.96 v 0 c -0.16584,2.73168 -1.92,4.32 -4.8,4.56 v 0 -0.96 h -0.48 v 0.96 0 c -1.56887,-0.0372 -4.68958,-1.50679 -4.56,-4.56 v 0 h 0.96 v -0.48 h -0.96 v 0 c 0.0288,-2.73534 2.08894,-4.85691 4.56,-4.8 v 0 0.96 h 0.48 v -0.96"
     fill="#ffffff"
     fill-rule="evenodd"
     id="path72"
     sodipodi:nodetypes="ccccccccccccccccccccccccc"
     style="stroke-width:0.1" />
  <path
     d="m 442.879,279.5727 2.64,-2.88 -0.24,-0.48 -2.4,2.4 -2.88,-2.88 -0.48,0.48 3.36,3.36"
     fill="#0052ba"
     fill-rule="evenodd"
     id="path73"
     style="stroke-width:0.1" />
  <g
     id="g98"
     transform="translate(52.210416,-56.165349)"
     style="display:inline">
    <path
       d="m 377.659,362.4327 v -13.92 c -0.007,-4.52037 3.79805,-5.93368 6.29524,-5.96685 l 12.66476,-0.0331 c 2.18336,-0.0122 5.60439,2.07487 5.59,3.36187 l 0.007,18.82248 c -0.006,2.01875 -2.60499,3.70336 -4.39734,3.73565 H 383.899 c -2.15976,-0.009 -6.23343,-0.29714 -6.24,-6"
       fill="#1f1a17"
       fill-rule="evenodd"
       id="path75"
       sodipodi:nodetypes="ccccccccc"
       style="stroke-width:0.1" />
    <path
       d="m 381.019,348.5127 c -0.004,-3.29805 2.15421,-4.80079 4.28501,-4.8 v 0 H 400.219 c 2.39876,-0.006 3.56896,1.45029 3.57125,4.56563 l -0.0312,13.67437 c 0.0302,2.5379 -1.81012,4.32938 -4.98,4.32 h -13.44 c -3.34994,-0.007 -4.31957,-2.42219 -4.32,-5.04 v -12.72"
       fill="#b6b2ab"
       fill-rule="evenodd"
       id="path83"
       sodipodi:nodetypes="cccccccccc"
       style="stroke-width:0.1" />
  </g>
  <path
     id="path74"
     d="m 441.91925,291.33298 -0.96094,0.24023 1.56055,4.00782 c -0.53009,0.32252 -0.9729,0.77686 -1.28125,1.3164 l -3.87891,-1.72461 -0.48047,1.19922 3.9668,1.54297 c -0.058,0.26023 -0.0898,0.53038 -0.0898,0.80859 0,0.3161 0.0409,0.6237 0.11523,0.91602 l -3.99219,1.77344 0.48047,0.95898 4.03711,-1.56836 c 0.30055,0.43911 0.69373,0.8091 1.15235,1.08203 l -1.58985,4.08789 0.96094,0.47852 1.61719,-4.16016 c 0.28609,0.071 0.58587,0.10742 0.89453,0.10742 0.31464,0 0.62101,-0.0396 0.91211,-0.11328 l 1.61523,3.92578 0.96094,-0.23828 -1.5918,-4.0957 c 0.4801,-0.28819 0.88744,-0.6832 1.19141,-1.15234 l 4,1.64648 0.48047,-1.19922 -4,-1.55469 c 0.0708,-0.28572 0.10742,-0.5863 0.10742,-0.89453 0,-0.277 -0.0284,-0.5455 -0.0859,-0.80468 l 3.97852,-1.54688 -0.48047,-1.19922 -3.89063,1.72852 c -0.30592,-0.53733 -0.74362,-0.98947 -1.26953,-1.3125 l 1.56055,-4.01563 -0.96094,-0.24023 -1.58008,3.83789 c -0.30195,-0.0797 -0.61956,-0.12305 -0.94726,-0.12305 -0.32291,0 -0.63561,0.0417 -0.9336,0.11914 z"
     style="stroke-width:0.1" />
  <path
     d="m 517.459,348.2727 c -0.0257,-4.25671 -6.71037,-4.26115 -6.72,0 -0.0171,4.77508 6.84,4.68 6.70714,0 h 0.0129"
     fill="#0052ba"
     fill-rule="evenodd"
     id="path76"
     sodipodi:nodetypes="cccc"
     style="stroke-width:0.1" />
  <path
     d="m 516.979,348.0327 v 0 c -0.006,-1.32264 -1.14144,-2.41098 -2.64,-2.4 v 0 0.72 h -0.48 v -0.72 0 c -1.28188,-0.007 -2.54014,1.14373 -2.54454,2.40607 v 0 l 0.86454,-0.006 v 0.48 l -0.84706,-0.0156 v 0 c -0.005,1.6643 1.08706,2.81005 2.53258,2.82128 v 0 l -0.005,-0.88573 h 0.48 l -0.0166,0.8802 v 0 c 1.38661,-0.005 2.59108,-1.17113 2.65657,-2.3202 v -0.48 h -0.72 v -0.48 h 0.72"
     fill="#ffffff"
     fill-rule="evenodd"
     id="path77"
     sodipodi:nodetypes="ccccccccccccccccccccccccc"
     style="stroke-width:0.1" />
  <path
     d="m 516.49119,354.22973 c 0.29115,0.89209 0.86851,1.30224 1.77328,1.28594 v 0 c 0.84208,-0.027 1.58662,-0.61487 1.59672,-1.61922 v 0 c 0.004,-0.87891 -0.65917,-1.50259 -1.64531,-1.53594 v 0 c -1.182,0.001 -1.61491,0.75577 -1.71688,1.43219 h -7.92 v 1.44 h 0.48 v -0.96 h 0.72 v 1.92 h 0.48 v -1.92 h 0.48 v 0.96 h 0.72 v -0.96 l 5.03219,-0.043"
     fill="#0052ba"
     fill-rule="evenodd"
     id="path78"
     style="stroke-width:0.1"
     sodipodi:nodetypes="ccccccccccccccccccccc" />
  <path
     d="m 514.099,348.0327 -1.44,-1.44 -0.24,0.24 1.68,1.92 1.68,-1.68 -0.48,-0.24 -1.2,1.2"
     fill="#0052ba"
     fill-rule="evenodd"
     id="path79"
     style="stroke-width:0.1" />
  <path
     d="m 519.64073,353.86672 c -0.004,-1.61107 -2.89489,-1.79602 -2.8922,0.13036 0.005,1.69737 2.87762,1.75605 2.8922,-0.13036"
     fill="#ffffff"
     fill-rule="evenodd"
     id="path81"
     style="stroke-width:0.1"
     sodipodi:nodetypes="ccc" />
  <path
     id="path82"
     style="fill:#000000;stroke-width:0.1"
     d="m 499.47198,350.9111 c -1.57789,0.0126 -2.88415,1.1448 -3.16601,2.64063 h -11.90625 v 3.8418 h 0.95898 v -2.64063 h 1.43946 v 4.08008 h 0.96093 v -4.08008 h 1.38086 v 2.64063 h 0.95899 v -2.64063 h 6.20508 c 0.16713,0.90219 0.70867,1.66648 1.45898,2.12891 l 0.0156,0.0312 0.48047,0.24023 h 0.0586 c 0.35836,0.13405 0.74667,0.20443 1.15429,0.20117 1.78504,-0.0143 3.22266,-1.461 3.22266,-3.24609 0,-1.7851 -1.43762,-3.21152 -3.22266,-3.19727 z m -0.0703,0.99024 h 0.16797 c 1.21808,0 2.19922,0.98114 2.19922,2.19922 v 0.10351 c 0,1.21808 -0.98114,2.19922 -2.19922,2.19922 h -0.16797 c -1.21807,0 -2.19922,-0.98114 -2.19922,-2.19922 v -0.10351 c 0,-1.21808 0.98115,-2.19922 2.19922,-2.19922 z" />
  <g
     clip-path="url(#clip_0)"
     id="g83"
     transform="translate(-0.701,-0.9873)" />
  <g
     clip-path="url(#clip_1)"
     id="g84"
     transform="translate(-0.701,-0.9873)" />
  <g
     clip-path="url(#clip_2)"
     id="g85"
     transform="translate(-0.701,-0.9873)" />
  <g
     clip-path="url(#clip_3)"
     id="g86"
     transform="translate(-0.701,-0.9873)" />
  <g
     clip-path="url(#clip_4)"
     id="g87"
     transform="translate(-0.701,-0.9873)" />
  <g
     clip-path="url(#clip_5)"
     id="g88"
     transform="translate(-0.701,-0.9873)" />
  <g
     clip-path="url(#clip_6)"
     id="g89"
     transform="translate(-0.701,-0.9873)" />
  <g
     clip-path="url(#clip_7)"
     id="g90"
     transform="translate(-0.701,-0.9873)" />
  <g
     clip-path="url(#clip_8)"
     id="g91"
     transform="translate(-0.701,-0.9873)" />
  <g
     clip-path="url(#clip_9)"
     id="g92"
     transform="translate(-0.701,-0.9873)" />
  <g
     clip-path="url(#clip_10)"
     id="g93"
     transform="translate(-0.701,-0.9873)" />
  <g
     clip-path="url(#clip_11)"
     id="g94"
     transform="translate(-0.701,-0.9873)" />
  <g
     clip-path="url(#clip_12)"
     id="g95"
     transform="translate(-0.701,-0.9873)" />
  <g
     clip-path="url(#clip_13)"
     id="g96"
     transform="translate(-0.701,-0.9873)" />
  <g
     clip-path="url(#clip_14)"
     id="g97"
     transform="translate(-0.701,-0.9873)" />
  <rect
     style="fill:#b6b2ab;fill-opacity:1;stroke-width:8.4254"
     id="rect97"
     width="6.239645"
     height="5.72402"
     x="441.32651"
     y="295.84732"
     ry="2.86201" />
  <rect
     style="fill:#000000;fill-opacity:1;stroke-width:11.5884"
     id="rect98"
     width="13.399085"
     height="13.688795"
     x="385.819"
     y="348.12671"
     ry="6.6995425" />
  <rect
     style="fill:#b6b2ab;fill-opacity:1;stroke-width:5.09929"
     id="rect99"
     width="11.75"
     height="2.765625"
     x="386.62238"
     y="353.65915"
     ry="0.3203125" />
  <rect
     style="fill:#000000;fill-opacity:1;stroke:#000000;stroke-width:9.9805"
     id="rect100"
     width="10.321223"
     height="10.144793"
     x="437.71838"
     y="343.75345"
     ry="5.0723963" />
  <rect
     style="fill:#ffffff;fill-opacity:1;stroke:#ffffff;stroke-width:9.73984"
     id="rect101"
     width="10.150849"
     height="9.8236427"
     x="437.81918"
     y="343.93463"
     ry="4.9118214" />
  <text
     xml:space="preserve"
     style="font-size:8px;line-height:1.25;font-family:sans-serif;fill:#ef9c9f;fill-opacity:1"
     x="409.04288"
     y="366.2486"
     id="text98"><tspan
       sodipodi:role="line"
       id="tspan98"
       x="409.04288"
       y="366.2486"
       style="font-size:8px;fill:#ef9c9f;fill-opacity:1">1</tspan></text>
  <text
     xml:space="preserve"
     style="font-size:8px;line-height:1.25;font-family:sans-serif;fill:#ef9c9f;fill-opacity:1"
     x="420.76852"
     y="329.50861"
     id="text99"><tspan
       sodipodi:role="line"
       id="tspan99"
       x="420.76852"
       y="329.50861"
       style="font-size:8px;fill:#ef9c9f;fill-opacity:1">2</tspan></text>
  <text
     xml:space="preserve"
     style="font-size:8px;line-height:1.25;font-family:sans-serif;fill:#ef9c9f;fill-opacity:1"
     x="440.6391"
     y="326.1087"
     id="text100"><tspan
       sodipodi:role="line"
       id="tspan100"
       x="440.6391"
       y="326.1087"
       style="font-size:8px">3</tspan></text>
  <text
     xml:space="preserve"
     style="font-size:8px;line-height:1.25;font-family:sans-serif;fill:#ef9c9f;fill-opacity:1"
     x="459.6391"
     y="329.41272"
     id="text101"><tspan
       sodipodi:role="line"
       id="tspan101"
       x="459.6391"
       y="329.41272"
       style="font-size:8px">4</tspan></text>
  <text
     xml:space="preserve"
     style="font-size:8px;line-height:1.25;font-family:sans-serif;fill:#ef9c9f;fill-opacity:1"
     x="467.98322"
     y="366.26462"
     id="text102"><tspan
       sodipodi:role="line"
       id="tspan102"
       x="467.98322"
       y="366.26462"
       style="font-size:8px">5</tspan></text>
  <text
     xml:space="preserve"
     style="font-size:8px;line-height:1.25;font-family:sans-serif;fill:#ef9c9f;fill-opacity:1"
     x="440.56708"
     y="371.82712"
     id="text103"><tspan
       sodipodi:role="line"
       id="tspan103"
       x="440.56708"
       y="371.82712"
       style="font-size:8px">6</tspan></text>
</svg>
