<svg xmlns="http://www.w3.org/2000/svg" width="0" height="0" style="display: none; position: absolute">
    <defs>
        <symbol id="icon-fehler" viewBox="0 0 24 24">
            <path 
                d="M11.001 10h2v5h-2zM11 16h2v2h-2z" 
                fill="currentColor" 
            />
            <path 
                d="M13.768 4.2C13.42 3.545 12.742 3.138 12 3.138s-1.42.407-1.768 1.063L2.894 18.064a1.986 1.986 0 0 0 .054 1.968A1.984 1.984 0 0 0 4.661 21h14.678c.708 0 1.349-.362 1.714-.968a1.989 1.989 0 0 0 .054-1.968L13.768 4.2zM4.661 19L12 5.137L19.344 19H4.661z" 
                fill="currentColor"
            />
        </symbol>

        <symbol id="icon-ursache" viewBox="0 0 32 32">
            <path 
                d="M6.813 2.406L5.405 3.812L7.5 5.906L8.906 4.5L6.812 2.406zm18.375 0L23.093 4.5L24.5 5.906l2.094-2.093l-1.407-1.407zM16 3.03c-.33.004-.664.023-1 .064c-.01 0-.02-.002-.03 0c-4.056.465-7.284 3.742-7.845 7.78c-.448 3.25.892 6.197 3.125 8.095a5.238 5.238 0 0 1 1.75 3.03v6h2.28c.348.597.983 1 1.72 1s1.372-.403 1.72-1H20v-4h.094v-1.188c0-1.466.762-2.944 2-4.093C23.75 17.06 25 14.705 25 12c0-4.94-4.066-9.016-9-8.97zm0 2c3.865-.054 7 3.11 7 6.97c0 2.094-.97 3.938-2.313 5.28l.032.032A7.792 7.792 0 0 0 18.279 22h-4.374c-.22-1.714-.955-3.373-2.344-4.563c-1.767-1.5-2.82-3.76-2.468-6.312c.437-3.15 2.993-5.683 6.125-6.03a6.91 6.91 0 0 1 .78-.064zM2 12v2h3v-2H2zm25 0v2h3v-2h-3zM7.5 20.094l-2.094 2.093l1.407 1.407L8.905 21.5L7.5 20.094zm17 0L23.094 21.5l2.093 2.094l1.407-1.407l-2.094-2.093zM14 24h4v2h-4v-2z" 
                fill="currentColor"
            />
        </symbol>

        <symbol id="icon-info" viewBox="0 0 1024 1024">
            <path 
                d="m576 736l-32-.001v-286c0-.336-.096-.656-.096-1.008s.096-.655.096-.991c0-17.664-14.336-32-32-32h-64c-17.664 0-32 14.336-32 32s14.336 32 32 32h32v256h-32c-17.664 0-32 14.336-32 32s14.336 32 32 32h128c17.664 0 32-14.336 32-32s-14.336-32-32-32zm-64-384.001c35.344 0 64-28.656 64-64s-28.656-64-64-64s-64 28.656-64 64s28.656 64 64 64zm0-352c-282.768 0-512 229.232-512 512c0 282.784 229.232 512 512 512c282.784 0 512-229.216 512-512c0-282.768-229.216-512-512-512zm0 961.008c-247.024 0-448-201.984-448-449.01c0-247.024 200.976-448 448-448s448 200.977 448 448s-200.976 449.01-448 449.01z" 
                fill="currentColor"
            />
        </symbol>

        <symbol id="icon-hilfe" viewBox="0 0 14 14">
            <g 
                fill="none" 
                stroke="currentColor" 
                strokeLinecap="round" 
                strokeLinejoin="round"
            >
                <path d="M5.5 4.054a1.5 1.5 0 1 1 1.5 1.5v.5m0 2.062a.25.25 0 0 1 0-.5m0 .5a.25.25 0 0 0 0-.5"/>
                <path d="M12.5 13.5H3a1.5 1.5 0 1 1 0-3h8.5a1 1 0 0 0 1-1v-8a1 1 0 0 0-1-1H3a1.5 1.5 0 0 0-1.5 1.46v10m10-1.46v3"/>
            </g>
        </symbol>

        <symbol id="icon-upload" viewBox="0 0 16 16">
            <path 
                d="M11.78 5.841a.75.75 0 0 1-1.06 0l-1.97-1.97v7.379a.75.75 0 0 1-1.5 0V3.871l-1.97 1.97a.75.75 0 0 1-1.06-1.06l3.25-3.25L8 1l.53.53l3.25 3.25a.75.75 0 0 1 0 1.061ZM2.5 9.75a.75.75 0 0 0-1.5 0V13a2 2 0 0 0 2 2h10a2 2 0 0 0 2-2V9.75a.75.75 0 0 0-1.5 0V13a.5.5 0 0 1-.5.5H3a.5.5 0 0 1-.5-.5V9.75Z" 
                fill="currentColor" 
                fillRule="evenodd"
            />
        </symbol>

        <symbol id="icon-theme" viewBox="0 0 512 512">
            <path 
                d="M277.333 405.333v85.333h-42.667v-85.333zm99.346-58.824l60.34 60.34l-30.17 30.17l-60.34-60.34zm-241.359 0l30.17 30.17l-60.34 60.34l-30.17-30.17zM256 139.353c64.422 0 116.647 52.224 116.647 116.647c0 64.422-52.225 116.647-116.647 116.647A116.427 116.427 0 0 1 139.352 256c0-64.423 52.225-116.647 116.648-116.647m0 42.666c-40.859 0-73.981 33.123-73.981 74.062a73.76 73.76 0 0 0 21.603 52.296c13.867 13.867 32.685 21.64 52.378 21.603zm234.666 52.647v42.667h-85.333v-42.667zm-384 0v42.667H21.333v-42.667zM105.15 74.98l60.34 60.34l-30.17 30.17l-60.34-60.34zm301.7 0l30.169 30.17l-60.34 60.34l-30.17-30.17zM277.332 21.333v85.333h-42.667V21.333z" 
                fill="currentColor" 
                fillRule="evenodd"
            />
        </symbol>

        <symbol id="icon-menu" viewBox="0 0 1024 1024">
            <path
                d="M600.704 64a32 32 0 0 1 30.464 22.208l35.2 109.376c14.784 7.232 28.928 15.36 42.432 24.512l112.384-24.192a32 32 0 0 1 34.432 15.36L944.32 364.8a32 32 0 0 1-4.032 37.504l-77.12 85.12a357.12 357.12 0 0 1 0 49.024l77.12 85.248a32 32 0 0 1 4.032 37.504l-88.704 153.6a32 32 0 0 1-34.432 15.296L708.8 803.904c-13.44 9.088-27.648 17.28-42.368 24.512l-35.264 109.376A32 32 0 0 1 600.704 960H423.296a32 32 0 0 1-30.464-22.208L357.696 828.48a351.616 351.616 0 0 1-42.56-24.64l-112.32 24.256a32 32 0 0 1-34.432-15.36L79.68 659.2a32 32 0 0 1 4.032-37.504l77.12-85.248a357.12 357.12 0 0 1 0-48.896l-77.12-85.248A32 32 0 0 1 79.68 364.8l88.704-153.6a32 32 0 0 1 34.432-15.296l112.32 24.256c13.568-9.152 27.776-17.408 42.56-24.64l35.2-109.312A32 32 0 0 1 423.232 64H600.64zm-23.424 64H446.72l-36.352 113.088l-24.512 11.968a294.113 294.113 0 0 0-34.816 20.096l-22.656 15.36l-116.224-25.088l-65.28 113.152l79.68 88.192l-1.92 27.136a293.12 293.12 0 0 0 0 40.192l1.92 27.136l-79.808 88.192l65.344 113.152l116.224-25.024l22.656 15.296a294.113 294.113 0 0 0 34.816 20.096l24.512 11.968L446.72 896h130.688l36.48-113.152l24.448-11.904a288.282 288.282 0 0 0 34.752-20.096l22.592-15.296l116.288 25.024l65.28-113.152l-79.744-88.192l1.92-27.136a293.12 293.12 0 0 0 0-40.256l-1.92-27.136l79.808-88.128l-65.344-113.152l-116.288 24.96l-22.592-15.232a287.616 287.616 0 0 0-34.752-20.096l-24.448-11.904L577.344 128zM512 320a192 192 0 1 1 0 384a192 192 0 0 1 0-384zm0 64a128 128 0 1 0 0 256a128 128 0 0 0 0-256z"
                fill="currentColor"
            />
        </symbol>

        <symbol id="icon-trash" viewBox="0 0 26 26">
            <path 
                d="M11.5-.031c-1.958 0-3.531 1.627-3.531 3.594V4H4c-.551 0-1 .449-1 1v1H2v2h2v15c0 1.645 1.355 3 3 3h12c1.645 0 3-1.355 3-3V8h2V6h-1V5c0-.551-.449-1-1-1h-3.969v-.438c0-1.966-1.573-3.593-3.531-3.593h-3zm0 2.062h3c.804 0 1.469.656 1.469 1.531V4H10.03v-.438c0-.875.665-1.53 1.469-1.53zM6 8h5.125c.124.013.247.031.375.031h3c.128 0 .25-.018.375-.031H20v15c0 .563-.437 1-1 1H7c-.563 0-1-.437-1-1V8zm2 2v12h2V10H8zm4 0v12h2V10h-2zm4 0v12h2V10h-2z" 
                fill="currentColor"
            />
        </symbol>
        
        <symbol id="icon-x" viewBox="0 0 14 14">
            <path
                d="M1.707.293A1 1 0 0 0 .293 1.707L5.586 7L.293 12.293a1 1 0 1 0 1.414 1.414L7 8.414l5.293 5.293a1 1 0 0 0 1.414-1.414L8.414 7l5.293-5.293A1 1 0 0 0 12.293.293L7 5.586z"
                fill="currentColor"
                fillRule="evenodd"
            />
        </symbol>

        <symbol id="icon-scrollTop" viewBox="0 0 100 100" fill="none">
            <path
            fill="currentColor"
            d="m50 0c-13.262 0-25.98 5.2695-35.355 14.645s-14.645 22.094-14.645 35.355 5.2695 25.98 14.645 35.355 22.094 14.645 35.355 14.645 25.98-5.2695 35.355-14.645 14.645-22.094 14.645-35.355-5.2695-25.98-14.645-35.355-22.094-14.645-35.355-14.645zm20.832 62.5-20.832-22.457-20.625 22.457c-1.207 0.74219-2.7656 0.57812-3.7891-0.39844-1.0273-0.98047-1.2695-2.5273-0.58594-3.7695l22.918-25c0.60156-0.61328 1.4297-0.96094 2.2891-0.96094 0.86328 0 1.6914 0.34766 2.293 0.96094l22.918 25c0.88672 1.2891 0.6875 3.0352-0.47266 4.0898-1.1562 1.0508-2.9141 1.0859-4.1133 0.078125z"
            />
        </symbol>

        <symbol id="icon-logo" viewBox="15.606 61.1864 729.8 695.2">
            <defs id="defs10448"/>
            <sodipodi:namedview id="namedview10446" pagecolor="#ffffff" bordercolor="#666666" borderopacity="1.0" inkscape:pageshadow="2" inkscape:pageopacity="0.0" inkscape:pagecheckerboard="0" showgrid="false" inkscape:zoom="1.2557537" inkscape:cx="773.63896" inkscape:cy="350.38718" inkscape:window-width="2560" inkscape:window-height="1377" inkscape:window-x="-8" inkscape:window-y="-8" inkscape:window-maximized="1" inkscape:current-layer="svg10444"/>
                
                <path 
                    d="M435.1 445.5c-18.9-21-7.7-42.4-6.4-44.1 13.7 5.2 44.4 4.8 57.8-9.3l89.6 92.5c40.8 46.2-17.5 94.5-49 59Zm-51.3 55.1c-32.3-32.7 13.4-88.5 51.3-55.1l92 98.1c31.4 35.9-21.1 88.6-48.4 58.6Zm-54.6 52.7c-36-39.1 22.9-85.6 54.6-52.7l94.9 101.6c27.5 30-19 89.4-52.5 53.6Zm-52.4 54.2c-28.7-35.3 21.4-83.6 52.4-54.2l96.9 102.4c33.6 35.9-22.1 87.2-55.4 50.8ZM391.3 314c-10.4 86.2 87.5 92 96.3 52.6 13.2-68.6-19.4-147.3-78.4-153.7-51.6-4.3-121.4-7.9-149.1 18.1L112.8 390c-13.2 16.3-13.4 16.8-1.9 36.4L179.6 533c2.7 3.5 3.8 3.8 7.7 0l204-219ZM26.6 265.9c-12.1 14.2-12.1 14.3-5.9 23.3l58.9 81.2c8.5 11.9 9.2 12.2 20.9.3L241.9 220.4c9.3-10.2 9.2-10.6-2-17.8l-83.6-54.8c-10.5-6.2-10.6-6.1-21.6 4.8L26.6 265.9ZM291.1 652.7c-16.6-19.2-33.5-37.1-39.7-59.7-7.9-31.8 23.2-71.3 55.3-66.4-9.3-31.3 20-63.8 51.7-56.3-8.2-31.4 22.1-61.9 52.3-55.3.1-6.3.2-12.6 5-18-16.3-5.9-26.3-18.1-31.3-29l-18.5 16.5c-7.3 8.2-14-1.3-34.7 20.4L99.8 651.7c-31.9 36.3 69.5 131.2 102.5 96l88.8-95ZM567.5 310.9c-16.2-17.8-39.4-39.2-58.7-54.4-5.6-4.1-13.9-4.5-21.4-2 22.6 41.3 24.3 95 8.3 126.9l13.5 13.2L538.9 358c34.3-4 38-36.9 28.6-47.1Zm35.8-25.1Zm23.6-82c1.2 2.2 1.8 5.1 1.6 7.1l-39.8 10.3c-1-2-1.8-4.7-1.7-7.3l39.8-10.1Zm-5.1-8.9A1.1 1.1 89 01593.6 230a1.1 1.1 89 0128.2-35.1Zm22.3 43.4c28.8-50.8-23.2-98.2-70.7-64.6-14.5 14.4-29 29.5-42.6 44.9l-22 37.8c19.4 15.2 42.6 36.6 58.8 54.4l35.7-25.1c1.4-.8 29.7-29.9 40.9-47.4ZM618.9 140c19.6 15.1 38.6 31.2 55 49.3m0 0Zm16.1-19c-3.3-7.3-38.2-41.3-53.1-48.4-1.8-1.1-18.9 17.2-18 18.2l-45.4 33.7c47.5-33.6 99.4 13.9 70.7 64.6l29.7-49.1c.9.7 17.4-15.5 16.1-19.1ZM713.1 146c-12-18.5-38.9-42-53.5-49l-22.7 24.8c14.9 7.1 49.9 41 53.1 48.4L713 146Zm30.8-31.9c1.6-1.8-.8-10.6-2.5-13.3-4.1-6.5-32.6-33.2-38.4-35.5-5-1.9-12.4-3.9-13.5-2.8L658.2 96.2c15 6.8 44 32.3 55.3 50.4l30.3-32.5Z" 
                    stroke="#000" 
                    stroke-width="3" 
                    fill="none" 
                    id="path10442"/>
                
                <path 
                    style="fill:#ff0000;stroke-width:0.796335" 
                    d="M 160.4614,692.70428 C 142.89197,689.37051 117.4723,672.61305 101.44457,653.79849 82.985012,632.12929 75.607143,612.18386 80.858966,598.1471 82.322986,594.23416 93.87611,581.64343 198.34771,470.10646 262.0735,402.07093 316.95624,343.82058 320.30937,340.66122 c 7.17675,-6.76203 12.6283,-9.85813 21.22404,-12.05377 4.31632,-1.10253 7.05209,-2.31911 8.75968,-3.89538 9.69618,-8.95051 18.08507,-16.31265 18.28613,-16.04802 0.1311,0.17255 1.16213,1.92631 2.29118,3.89724 5.07031,8.85108 13.3566,16.68566 22.50712,21.28019 2.19636,1.10281 4.1318,2.13027 4.30097,2.28324 0.16916,0.15298 -0.45796,2.05764 -1.39359,4.23258 -0.97665,2.27029 -1.70116,5.63552 -1.70116,7.90164 v 3.94718 l -8.95876,0.34223 c -10.67813,0.40791 -15.92592,2.05337 -23.91084,7.4973 -14.04751,9.57725 -22.21602,25.83125 -20.95905,41.7051 l 0.47293,5.97251 -8.16177,0.0114 c -10.11092,0.014 -15.42557,1.59824 -23.51652,7.0098 -7.04675,4.71315 -13.09162,11.74146 -16.56321,19.25789 -3.48896,7.55404 -4.63973,14.01224 -4.10221,23.02189 0.44013,7.37709 0.43791,7.38834 -1.38782,7.03933 -4.30707,-0.82335 -13.58487,1.41452 -21.04581,5.07639 -20.12569,9.8778 -34.03501,33.68616 -32.48789,55.60901 1.08878,15.42815 9.85899,31.33651 30.73086,55.74298 l 9.47659,11.08142 -22.61204,24.14072 c -12.43661,13.2774 -32.86137,35.0828 -45.38833,48.45644 -26.11713,27.88235 -26.76836,28.38303 -37.34696,28.71289 -3.50387,0.10927 -7.26655,0.0287 -8.36151,-0.17909 z" 
                    id="path10505" 
                    transform="translate(15.606,61.1864)"/>
                
                <path 
                    style="fill:#ff0000;stroke-width:0.796335" 
                    d="m 487.10842,325.85169 -5.79269,-5.83161 1.6861,-3.92848 c 13.21814,-30.79713 10.6143,-78.47159 -6.29173,-115.19717 -1.9092,-4.14742 -2.8783,-7.14696 -2.40382,-7.44021 1.99041,-1.23014 11.54218,-0.58889 15.04127,1.00978 6.52679,2.98198 38.10185,30.92969 54.70222,48.41802 10.50807,11.07016 11.97524,14.15454 11.11499,23.36679 -1.31832,14.11747 -11.40999,24.85521 -26.94784,28.67301 l -5.82149,1.4304 -14.1581,17.46146 c -7.78695,9.60381 -14.42317,17.5533 -14.74716,17.66555 -0.32398,0.11223 -3.19577,-2.42015 -6.38175,-5.62754 z" 
                    id="path10544" 
                    transform="translate(15.606,61.1864)"/>
                
                <path 
                    style="fill:#000000;stroke-width:0.796335" 
                    d="m 672.95333,105.08174 c -2.20582,-3.3665 -14.73983,-16.192923 -24.33889,-24.906696 -7.9247,-7.193839 -22.59877,-18.692313 -24.78443,-19.420866 -0.5934,-0.197799 3.38934,-5.149217 9.63413,-11.97735 l 10.64572,-11.640154 3.00955,1.535356 c 9.92284,5.062257 34.83062,27.334301 44.39308,39.695419 l 4.75914,6.152 -10.9071,11.428919 -10.9071,11.428922 z" 
                    id="path10792" 
                    transform="translate(15.606,61.1864)"/>
                
                <path 
                    style="fill:#999999;stroke-width:0.398167" 
                    d="m 586.74871,172.4001 c -5.1666,-1.44897 -10.60068,-5.43722 -13.01007,-9.54852 -0.58949,-1.00589 -1.00524,-1.88617 -0.92389,-1.95617 0.0814,-0.07 9.01709,-2.41315 19.8572,-5.20702 10.8401,-2.79386 20.02283,-5.24325 20.40607,-5.44309 0.62646,-0.32667 0.69679,-0.12287 0.69679,2.01911 0,3.09257 -1.55199,7.97457 -3.40723,10.71793 -2.80347,4.14551 -6.04784,6.75553 -10.72771,8.63019 -3.471,1.39041 -9.44107,1.75514 -12.89116,0.78757 z" 
                    id="path10966" 
                    transform="translate(15.606,61.1864)"/>
                
                <path 
                    style="fill:#999999;stroke-width:0.398167" 
                    d="m 570.56145,150.7063 c 0.13297,-5.07542 1.14533,-8.173 3.96048,-12.11807 4.12276,-5.77752 10.36743,-8.96943 17.56865,-8.98007 3.84314,-0.006 7.04052,0.76892 10.30403,2.49624 2.72273,1.4411 7.15359,5.66045 8.46387,8.05986 l 0.86626,1.58631 -20.45714,5.17466 -20.45715,5.17466 -0.17927,1.39358 c -0.0986,0.76648 -0.12997,-0.48775 -0.0697,-2.78717 z" 
                    id="path11005" 
                    transform="translate(15.606,61.1864)"/>
                
                <path 
                    style="fill:#999999;stroke-width:0.398167" 
                    d="m 573.01441,157.82043 c -0.29913,-0.73739 -0.6516,-2.0574 -0.78327,-2.93337 l -0.23939,-1.59267 19.35218,-4.90386 c 11.13906,-2.82265 19.50086,-4.75519 19.7025,-4.55355 0.19267,0.19267 0.56612,1.37921 0.82989,2.63675 0.38424,1.83188 0.37868,2.34879 -0.028,2.60013 -0.27917,0.17254 -8.60512,2.4049 -18.50212,4.9608 -9.897,2.55591 -18.39805,4.75496 -18.89124,4.88678 -0.74162,0.19823 -0.99076,0.008 -1.44056,-1.10101 z" 
                    id="path11044" 
                    transform="translate(15.606,61.1864)"/>
                
                <path 
                    style="fill:#999999;stroke-width:0.398167" 
                    d="m 634.87767,165.02024 c 0,-0.10849 0.43544,-1.9138 0.96764,-4.01179 3.54864,-13.98914 1.23187,-28.41017 -6.4089,-39.89307 -11.71266,-17.60234 -33.59886,-24.799283 -54.66403,-17.97543 -2.28954,0.74168 -4.21221,1.29909 -4.27261,1.2387 -0.0604,-0.0604 3.15669,-2.53362 7.14906,-5.496074 3.99237,-2.96245 11.42029,-8.475418 16.50648,-12.251041 l 9.24762,-6.864768 7.67448,6.126094 c 15.84684,12.649606 26.62495,22.208679 38.23383,33.909469 4.32509,4.35934 7.8638,8.10419 7.8638,8.32189 0,0.2177 -4.77503,8.29933 -10.61118,17.95917 -10.61713,17.57319 -11.68619,19.30553 -11.68619,18.93685 z" 
                    id="path11083" 
                    transform="translate(15.606,61.1864)"/>
                
                <path 
                    style="fill:#999999;stroke-width:0.398167" 
                    d="m 652.72881,121.10814 c -10.28716,-10.75501 -24.72957,-23.671904 -40.24147,-35.990885 -6.83587,-5.428795 -8.19324,-6.672276 -7.89392,-7.231574 1.32366,-2.473274 14.29525,-15.644487 15.91308,-16.157967 1.54445,-0.490187 8.72882,4.353564 18.55193,12.507828 11.77145,9.771601 28.76322,26.680908 33.57467,33.411718 1.20805,1.68997 1.22462,1.77179 0.64149,3.16742 -0.32923,0.78795 -1.34359,2.42617 -2.25414,3.64048 -1.77514,2.36735 -10.8476,11.81623 -11.87913,12.37201 -0.47806,0.25757 -1.96051,-1.06456 -6.41251,-5.71903 z" 
                    id="path11122" 
                    transform="translate(15.606,61.1864)"/>
                
                <path 
                    style="fill:#cccccc;stroke-width:0.398167" 
                    d="M 696.47215,81.987283 C 685.51895,66.307429 662.46339,45.199671 646.32165,36.073651 l -2.29279,-1.296272 1.09829,-1.307194 c 0.60406,-0.718957 7.45901,-8.157941 15.23323,-16.531075 l 14.13494,-15.2238804 2.18992,0.22455 c 2.73112,0.2800436 8.31478,1.9324987 10.94959,3.2404749 2.36094,1.1720146 8.01482,5.6625405 14.91514,11.8461655 6.79419,6.088514 19.40112,18.694544 21.48512,21.483576 1.932,2.585611 3.53398,7.080281 3.89271,10.921735 l 0.23069,2.470449 -13.8515,14.861055 c -7.61833,8.173577 -14.40687,15.430708 -15.08566,16.12696 l -1.23415,1.265909 z" 
                    id="path11161" 
                    transform="translate(15.606,61.1864)"/>
                
                <path 
                    style="fill:#cccccc;stroke-width:0.398167" 
                    d="m 545.11215,241.2391 c -13.93387,-14.45987 -34.54432,-33.2394 -49.37168,-44.98577 l -1.56225,-1.23763 10.72418,-18.47165 c 11.89181,-20.48281 10.28798,-18.2789 24.4448,-33.59072 3.84124,-4.15463 11.89051,-12.52915 17.88725,-18.61005 8.22824,-8.34369 11.6472,-11.53262 13.93586,-12.99823 5.86411,-3.75527 11.61981,-6.24587 18.33808,-7.93523 3.79315,-0.95382 4.90644,-1.05585 11.3718,-1.04222 6.44233,0.0136 7.55631,0.11997 11.01711,1.05215 19.68286,5.30163 32.88237,21.56007 34.02593,41.9113 0.55924,9.95236 -2.5272,21.9384 -8.04117,31.22748 -4.8832,8.22645 -19.54696,25.7718 -34.30475,41.04599 -5.54089,5.73478 -5.71329,5.87029 -22.25724,17.49576 -9.1702,6.44392 -17.21769,12.12248 -17.8833,12.61901 l -1.21021,0.90278 z m 52.73597,-67.51167 c 7.4057,-1.72403 14.28112,-8.31997 16.48139,-15.81144 3.79954,-12.93664 -4.31449,-26.54275 -17.47681,-29.30622 -3.52292,-0.73965 -6.03309,-0.73965 -9.55601,0 -8.26538,1.73534 -15.09854,8.08452 -17.56738,16.32311 -1.0512,3.50789 -0.94227,9.91147 0.22689,13.3386 2.92405,8.57119 9.61993,14.34795 18.43438,15.90397 2.30381,0.40669 6.67568,0.19959 9.45754,-0.44802 z" 
                    id="path11237" 
                    transform="translate(15.606,61.1864)"/>
            
                <path 
                    style="fill:#ffffff;stroke-width:0.398167" 
                    d="M 651.16743,119.22515 C 639.37158,107.3652 630.57861,99.504102 614.37206,86.329303 c -4.59883,-3.73853 -8.67435,-7.146165 -9.05671,-7.57252 -0.67243,-0.749793 -0.58017,-0.904689 2.81552,-4.727271 4.48381,-5.04748 11.93883,-12.114505 12.77962,-12.114505 2.4946,0 15.58961,9.997685 27.9831,21.364346 10.55548,9.680929 24.60631,24.647827 24.60631,26.210567 0,1.40376 -3.62816,6.14527 -8.79478,11.4936 l -5.80852,6.01279 z" 
                    id="path11276" 
                    transform="translate(15.606,61.1864)"/>
            
                <path 
                    style="fill:#ffffff;stroke-width:0.796335" 
                    d="M 69.960909,315.14938 C 66.368023,311.27596 3.3578271,223.93679 2.4816943,221.61565 1.474279,218.9467 2.7441445,216.1666 7.7292668,210.12721 11.186822,205.93844 95.958012,116.82563 115.31763,97.028625 c 6.49141,-6.63806 12.86195,-12.508016 14.15676,-13.044348 2.06659,-0.85601 2.8142,-0.736301 6.11918,0.979819 5.29273,2.74826 91.68244,59.357204 94.34801,61.823804 1.20446,1.11455 2.18992,2.46303 2.18992,2.99663 0,0.53359 -1.29954,2.52706 -2.88789,4.42993 -5.74797,6.88623 -150.020979,159.84005 -152.297292,161.46093 -3.100911,2.20805 -4.550624,2.09888 -6.985409,-0.52601 z" 
                    id="path11389" 
                    transform="translate(15.606,61.1864)"/>
                
                <path 
                    style="fill:#ffffff;stroke-width:0.796335" 
                    d="m 130.90307,418.67286 c -35.851056,-55.5973 -42.908109,-67.45638 -42.908109,-72.10528 0,-3.04085 2.225428,-7.45889 6.418202,-12.74177 2.909818,-3.66637 133.661967,-145.1915 146.843097,-158.94186 3.52207,-3.67417 8.47501,-8.03499 11.00653,-9.69071 18.2242,-11.91938 53.28148,-17.22018 100.24561,-15.15753 26.91477,1.18209 45.26121,2.88065 51.93403,4.8082 35.39254,10.22368 61.24559,47.62094 68.29343,98.78863 0.59343,4.30832 0.99667,13.90748 0.93668,22.29736 -0.18079,25.28306 -3.12344,36.47064 -11.28277,42.89565 -19.9692,15.7246 -54.88967,10.01681 -73.11369,-11.95052 -4.20975,-5.07446 -9.23193,-15.10232 -10.96013,-21.88427 -1.8994,-7.45382 -2.82707,-19.04347 -2.12755,-26.58022 0.34554,-3.72286 0.49252,-6.93045 0.32662,-7.12797 -0.44136,-0.52551 1.78487,-2.89863 -104.54917,111.44779 -53.96644,58.03288 -99.3351,106.67896 -100.81926,108.10241 -1.48415,1.42345 -3.20283,2.58809 -3.8193,2.58809 -0.61646,0 -17.00736,-24.6366 -36.42422,-54.748 z" 
                    id="path11428" 
                    transform="translate(15.606,61.1864)"/>
                
                <path 
                    style="fill:#ffffff;stroke-width:0.796335" 
                    d="m 532.34961,493.20693 c -7.24607,-1.13842 -13.20523,-4.63526 -20.42489,-11.98532 -3.56897,-3.63344 -26.42693,-27.90002 -50.79548,-53.92575 -42.1437,-45.00968 -44.47022,-47.65015 -47.66171,-54.09347 -3.3377,-6.73851 -3.35519,-6.82016 -3.34028,-15.59093 0.0125,-7.34046 0.30486,-9.45 1.74596,-12.59724 1.64183,-3.58563 1.84023,-3.73875 3.85274,-2.9736 1.16697,0.44369 5.6883,1.1947 10.04738,1.66891 14.80787,1.61093 30.99953,-1.59689 40.6759,-8.05853 l 4.61047,-3.07875 44.69694,46.11301 c 24.58333,25.36215 46.06434,47.93284 47.7356,50.15707 7.58745,10.09795 11.17317,22.26934 9.57984,32.51798 -3.14805,20.24909 -21.78283,34.82223 -40.72247,31.84662 z" 
                    id="path11467" 
                    transform="translate(15.606,61.1864)"/>
                
                <path 
                    style="fill:#ffffff;stroke-width:0.796335" 
                    d="m 477.00436,548.37671 c -3.29213,-0.86858 -7.49146,-3.12049 -10.42722,-5.59164 -2.06063,-1.73453 -84.58237,-89.82436 -98.20368,-104.82991 -7.86913,-8.66881 -11.50041,-19.82605 -9.74354,-29.93736 3.52212,-20.27082 23.28718,-36.00557 40.93091,-32.58463 6.19166,1.2005 13.51762,4.72475 17.91379,8.61766 1.84326,1.63225 24.16071,25.18547 49.59432,52.34047 50.58506,54.00874 50.73392,54.19463 52.72942,65.84423 3.46022,20.20064 -15.42592,45.08774 -35.22882,46.42257 -2.8469,0.19189 -6.25123,0.0653 -7.56518,-0.28139 z" 
                    id="path11506" 
                    transform="translate(15.606,61.1864)"/>
                
                <path 
                    style="fill:#ffffff;stroke-width:0.796335" 
                    d="m 426.83529,603.75057 c -6.27501,-2.0904 -10.43816,-4.80962 -15.92669,-10.40274 -13.87988,-14.14438 -97.97892,-103.4721 -99.98973,-106.20638 -6.11412,-8.31391 -8.68021,-17.49045 -7.21881,-25.81503 2.06364,-11.75509 10.06104,-21.92996 21.71736,-27.63036 13.50234,-6.60318 26.10108,-5.86885 37.03926,2.15886 3.99128,2.92926 100.0792,105.63596 103.21243,110.32196 6.29148,9.40941 6.14188,23.36376 -0.38953,36.33578 -3.56964,7.08965 -12.15423,15.6955 -18.97898,19.02599 -6.17259,3.01223 -14.29299,3.93498 -19.46531,2.21192 z" 
                    id="path11545" 
                    transform="translate(15.606,61.1864)"/>
                
                <path 
                    style="fill:#ffffff;stroke-width:0.796335" 
                    d="m 371.87781,655.14537 c -8.74114,-3.02262 -10.48075,-4.67305 -60.72762,-57.61429 -27.03588,-28.48562 -50.28966,-53.46935 -51.67507,-55.5194 -5.43596,-8.04382 -7.10757,-18.00854 -4.62188,-27.55176 4.85218,-18.62875 25.11974,-33.28241 41.50311,-30.00718 5.75951,1.1514 11.77293,4.05405 15.29039,7.3806 6.12628,5.79377 98.70874,103.97521 101.3974,107.52946 10.75706,14.22017 8.45497,32.98289 -5.68325,46.32017 -7.94676,7.49657 -16.07237,10.91381 -25.84415,10.86882 -3.22396,-0.0148 -7.35974,-0.61829 -9.63893,-1.40642 z" 
                    id="path11584" 
                    transform="translate(15.606,61.1864)"/>
                
                <path 
                    style="fill:#cccccc;stroke-width:0.796335;fill-opacity:1" 
                    d="M 646.22544,114.03589 C 639.43669,107.35886 627.52153,96.609281 619.74732,90.14794 611.9731,83.6866 605.61238,78.13296 605.61238,77.806519 c 0,-0.959714 14.67629,-15.294261 15.65888,-15.294261 1.14306,0 11.95421,7.732538 18.18534,13.006825 6.87499,5.819287 25.38962,24.017369 29.96774,29.455377 l 3.90319,4.63632 -1.78484,2.53069 c -1.75113,2.48289 -11.74367,13.50805 -12.55909,13.85693 -0.22824,0.0977 -5.96941,-5.28548 -12.75816,-11.96251 z" 
                    id="path11644" 
                    transform="translate(15.606,61.1864)"/>


        </symbol>
        
        <symbol id="slx-reset" viewBox="14 35 1173 219.2">
            <path 
                d="M61 94a1 1 0 000 94 1 1 0 000-94Zm94 0a1 1 0 003 94 1 1 0 00-3-94Zm-77.8 36-.1 20H61.4v13.4l-24.1-23 24.2-22.8v12.6l15.7-.1Zm63.6 20 .2-20h15.5V117.7L181 140.4 156.5 163l-.1-13H140.8Zm80.1-10.2V141H267v7.3l22.6-8-22.5-6.3v5.8ZM351 93.7a1 1 0 00.7 94.2A1 1 0 00351 93.7Zm-15.3 56.4V130.3h15.9l-.1-12.8 24.3 22.9-24.4 22.5-.1-12.7-15.6-.2Zm81.4-9.2V140l45.1.1V134l23.3 6.8-23.3 7.1-.1-6.9Zm96-106H972.6q11.2 0 11.2 11.5V235.6q.1 12.6-12.1 12.5l-458.2-.2q-11.6 0-11.6-11.4L502 46.1q0-11.1 11.1-11.2Zm38.4 87.5a1 1 0 000 12.9 1 1 0 000-12.9Zm0-3.2a1 1 0 000 19.5 1 1 0 000-19.5Zm-1.2-3.2a1 1 0 003.6 0l.1-5.8a1 1 0 00-3.6-.1l-.1 5.9Zm6.7.5a1 1 0 003 2.4l1.1-1.3a1 1 0 00-3.1-2.2l-1 1.1Zm5.3 4.5a1 1 0 002.2 3.2l5-3.1a1 1 0 00-2.6-3.1Zm2.2 6.2a1 1 0 00.3 3.6l2.4.1a1 1 0 00-.4-3.7Zm-.6 6.4a1 1 0 00-1.9 3.3l5.6 3.5a1 1 0 001.6-3.8Zm-4.1 5.5a1 1 0 00-3 1.8l1 1.6a1 1 0 003-2Zm-6 2.7a1 1 0 00-3.7.2v5.8a1 1 0 003.8.1Zm-6.8-.4a1 1 0 00-2.8-1.9l-1 1.2a1 1 0 003.1 1.9Zm-5.8-3.9a1 1 0 00-1.8-3.4l-4.6 2.6a1 1 0 001.9 3.4Zm-2.8-6.6a1 1 0 00.3-3.8h-1.5a1 1 0 00.1 3.8Zm.6-7a1 1 0 002.1-3.3l-4.1-2.5a1 1 0 00-2.3 3.2Zm4.6-5.5a1 1 0 003.4-2l-.5-.9a1 1 0 00-3.5 1.9Zm44.8 27.9h9.9l-.1-38.9c15.9.6 11.7 1.1 35.2 39l12.2-.1c-16.8-26.1-20.6-37.7-30.3-40.6a1 1 0 00.1-46.4l-26.6.4Zm10-48.1 16.9-.1a1 1 0 00.1-30.5l-17 .2Zm56.1 47.7H702v-9.1H663.5l.1-30.6 34-.1V97l-33.9.2.2-28.3 36.8-.2-.1-9.2H654.3Zm57-23.4a1 1 0 0056-4.1c-2.3-16.7-21-20.5-33.9-24.6-14.1-4.3-15.1-22.6.5-26.2 10.8-2.3 18.9.4 21.7 14.5l8.2-1.8a1 1 0 00-49.7 4.6c.9 15 13.8 16.7 35.2 24.4 11.3 3.7 11.2 23.4-.3 28.6-14.8 5.1-27.8-5.5-28.8-16.2ZM780.4 146l48.1.3v-9.6H789.3V106.2l34.2-.2V97.4l-34.1-.1.1-28.7h37.2V59.5H780.3Zm80 .3h9.1l.4-77.5h23.8V59.3l-57.2.1v9.1l23.8-.1Zm62.1-21.1h8.2c0-18.7 1.2-8.3 19-33.7A1 1 0 00904.9 72.6c-1.6 3.4-2.5 6.5-3.2 9.9l8.7.4c3.8-13.2 9.9-20 21.2-16.5 11.3 3.7 14.1 16.8 10.1 22-14.7 18.3-19 19.3-19.1 30.5Zm0 11.7v8.8l8.3-.1v-8.7ZM534.5 190l18.8 19.3V198.8h30.3l.3 10.4 19.7-19-19.7-19.8v10.8H553.7V170.3Zm100.6-7.3a1 1 0 0021.7 28c6.3-5.1 7.3-10.1 7-17.5l27.3-17.3c.7-1.8.8-3.4.4-5L660 190l-1.5-.6.1-2.3L690 168.2c-1.3-1.5-3.2-2.2-5.3-2.1l-27.4 16.4c-8.5-5.7-16.1-4.5-22.2.2Zm-1.6 18.9a1 1 0 008.8.1 1 1 0 00-8.8-.1Zm79.9-11.2 19.9 19.8-.1-11.6h8.3l.1-16.7H733l.1-11.2Zm45 8.3h7.9v11.5l20.2-19.8-20.2-19.9v11.2h-8Zm48.2-1.1 10.3 18.2c9-5.3 12.9 1.7 22.1-3l28.3-17.4a1 1 0 00-3.2-3.8l-15.2 9.1c-2.4 1.5-4-1.5-2-2.8l20.3-12.3a1 1 0 00-2.8-3.6l-19.5 12c-2.2 1.2-3.6-2.1-2-3.1l25.7-15.6a1 1 0 00-2.6-3.4l-25.1 15c-2.2 1.2-3.9-1.4-1.7-2.8l21-13.2a1 1 0 00-3.4-3.5l-23.5 14.1c-2.1 1.3-5.5-1.1-4.8-4.2l1.7-8.4a1 1 0 00-5.5-1.2c-3.2 15.2-4.2 21.4-18.1 29.8m105.8 19.6 31.7-.1-4.3-25.3 12.4.1-23.6-27.2-24.7 27.2 13.3-.1Zm88.7-77.3V141l45.8-.1v6.8l24.5-7.1-24.5-6.8v5.9Zm85.4.7a1 1 0 0095-1.3 1 1 0 00-95 1.3Zm42.1.1c.2 19.7-23.3 19.8-23.2.2-.2-18.6 23.2-18.6 23.2-.2Zm4.5.1c0 24.2-32.8 24-32.7.2-.1-23.6 32.7-23.5 32.7-.2Zm5.3 17v-34h4.7l-.1 16.4 17.2-16.7h5.8l-14 14.2 15.1 20-7-.1-11.5-16.6-5.4 5.3-.1 11.5Z" 
                stroke="currentColor" 
                stroke-width="3" 
                fill="none"/>
        </symbol>

   
        <symbol id="sl35-menue" viewBox="0 0 610 610">
            <path 
                d="M168 0H24Q0 0 0 24V150q0 30 24 30H156q24 0 24-24V24q0-24-18-24Zm48 24V156q0 24 24 24H372q24 0 24-24V24q0-24-24-24H240q-24 0-24 24Zm210 0V156q0 24 24 24H582q24 0 24-24V24q0-24-24-24H450q-24 0-24 24ZM24 216q-24 0-24 24V372q0 24 24 24H156q24 0 24-24V240q0-24-24-24H24Zm0 210q-24 0-24 24V582q0 24 24 24H156q24 0 24-24V450q0-24-24-24H24ZM240 216q-24 0-24 24V372q0 24 24 24H372q24 0 24-24V240q0-24-24-24H240Zm210 0q-24 0-24 24V372q0 24 24 24H582q24 0 24-24V240q0-24-24-24H450ZM240 426q-24 0-24 24V582q0 24 24 24H372q24 0 24-24V450q0-24-24-24H240Zm210 0q-24 0-24 24V582q0 24 24 24H582q24 0 24-24V450q0-24-24-24H450M121 44l-4 18c-39-15-37 8-34 9 14 14 29 8 41 29 6 15 0 26-9 35-16 11-39 10-58 2l5-19c12 5 25 10 36 3 6-4 7-12-1-17-10-5-21-7-32-18-6-5-10-20-3-32 17-25 58-14 59-10ZM327 75c-10-29-49-16-47 18 1 36 21 36 28 35 11-3 17-12 19-21l20 6c0 7-12 29-32 32-15 2-32-1-42-12-17-19-20-53-3-76 15-17 36-17 43-16 21 2 32 19 34 29l-20 5Zm152 70V41h51c38 1 41 63 1 64l-31 1v39H479Zm21-57h18c27 0 25-29 0-29H500V88m26 272H505V256h21V360Zm-135 0H358V255h33V360Zm-136 0H222l1-105h32V360ZM66 359H46V255h56c40 2 40 56 0 57 13 6 23 23 38 47H114c-29-44-26-45-48-44v44Zm0-61H98c15 0 17-22 0-26H66v26M93 567c51-9 42-69 5-71v29L27 484l71-42v29c75 7 73 113-5 119V567Zm269-47-54-57-56 56-7-7 63-62 61 63-7 7Zm-33-52V456h10v22Zm21 46v66H323V544H297v36H267V510l41-42 42 46Zm200 46v25H452V446h98v25H479v89h71Zm5-12V531H522V501h33V483l36 33-36 32Z" 
                stroke="currentColor" 
                stroke-width="4" 
                fill="var(--card-border)"/>
        </symbol>
    </defs> 

</svg>
