<svg xmlns="http://www.w3.org/2000/svg" style="display: none;">
    <symbol id="icon-fehler" viewBox="0 0 24 24">
        <path 
            d="M11.001 10h2v5h-2zM11 16h2v2h-2z" 
            fill="currentColor" 
        />
        <path 
            d="M13.768 4.2C13.42 3.545 12.742 3.138 12 3.138s-1.42.407-1.768 1.063L2.894 18.064a1.986 1.986 0 0 0 .054 1.968A1.984 1.984 0 0 0 4.661 21h14.678c.708 0 1.349-.362 1.714-.968a1.989 1.989 0 0 0 .054-1.968L13.768 4.2zM4.661 19L12 5.137L19.344 19H4.661z" 
            fill="currentColor"
        />
    </symbol>

    <symbol id="icon-ursache" viewBox="0 0 32 32">
        <path 
            d="M6.813 2.406L5.405 3.812L7.5 5.906L8.906 4.5L6.812 2.406zm18.375 0L23.093 4.5L24.5 5.906l2.094-2.093l-1.407-1.407zM16 3.03c-.33.004-.664.023-1 .064c-.01 0-.02-.002-.03 0c-4.056.465-7.284 3.742-7.845 7.78c-.448 3.25.892 6.197 3.125 8.095a5.238 5.238 0 0 1 1.75 3.03v6h2.28c.348.597.983 1 1.72 1s1.372-.403 1.72-1H20v-4h.094v-1.188c0-1.466.762-2.944 2-4.093C23.75 17.06 25 14.705 25 12c0-4.94-4.066-9.016-9-8.97zm0 2c3.865-.054 7 3.11 7 6.97c0 2.094-.97 3.938-2.313 5.28l.032.032A7.792 7.792 0 0 0 18.279 22h-4.374c-.22-1.714-.955-3.373-2.344-4.563c-1.767-1.5-2.82-3.76-2.468-6.312c.437-3.15 2.993-5.683 6.125-6.03a6.91 6.91 0 0 1 .78-.064zM2 12v2h3v-2H2zm25 0v2h3v-2h-3zM7.5 20.094l-2.094 2.093l1.407 1.407L8.905 21.5L7.5 20.094zm17 0L23.094 21.5l2.093 2.094l1.407-1.407l-2.094-2.093zM14 24h4v2h-4v-2z" 
            fill="currentColor"
        />
    </symbol>

    <symbol id="icon-info" viewBox="0 0 1024 1024">
        <path 
            d="m576 736l-32-.001v-286c0-.336-.096-.656-.096-1.008s.096-.655.096-.991c0-17.664-14.336-32-32-32h-64c-17.664 0-32 14.336-32 32s14.336 32 32 32h32v256h-32c-17.664 0-32 14.336-32 32s14.336 32 32 32h128c17.664 0 32-14.336 32-32s-14.336-32-32-32zm-64-384.001c35.344 0 64-28.656 64-64s-28.656-64-64-64s-64 28.656-64 64s28.656 64 64 64zm0-352c-282.768 0-512 229.232-512 512c0 282.784 229.232 512 512 512c282.784 0 512-229.216 512-512c0-282.768-229.216-512-512-512zm0 961.008c-247.024 0-448-201.984-448-449.01c0-247.024 200.976-448 448-448s448 200.977 448 448s-200.976 449.01-448 449.01z" 
            fill="currentColor"
        />
    </symbol>

    <symbol id="icon-hilfe" viewBox="0 0 14 14">
        <g 
            fill="none" 
            stroke="currentColor" 
            strokeLinecap="round" 
            strokeLinejoin="round"
        >
            <path d="M5.5 4.054a1.5 1.5 0 1 1 1.5 1.5v.5m0 2.062a.25.25 0 0 1 0-.5m0 .5a.25.25 0 0 0 0-.5"/>
            <path d="M12.5 13.5H3a1.5 1.5 0 1 1 0-3h8.5a1 1 0 0 0 1-1v-8a1 1 0 0 0-1-1H3a1.5 1.5 0 0 0-1.5 1.46v10m10-1.46v3"/>
        </g>
    </symbol>


    <symbol id="icon-upload" viewBox="0 0 16 16">
        <path 
            d="M11.78 5.841a.75.75 0 0 1-1.06 0l-1.97-1.97v7.379a.75.75 0 0 1-1.5 0V3.871l-1.97 1.97a.75.75 0 0 1-1.06-1.06l3.25-3.25L8 1l.53.53l3.25 3.25a.75.75 0 0 1 0 1.061ZM2.5 9.75a.75.75 0 0 0-1.5 0V13a2 2 0 0 0 2 2h10a2 2 0 0 0 2-2V9.75a.75.75 0 0 0-1.5 0V13a.5.5 0 0 1-.5.5H3a.5.5 0 0 1-.5-.5V9.75Z" 
            fill="currentColor" 
            fillRule="evenodd"
        />
    </symbol>

    <symbol id="icon-theme" viewBox="0 0 512 512">
        <path 
            d="M277.333 405.333v85.333h-42.667v-85.333zm99.346-58.824l60.34 60.34l-30.17 30.17l-60.34-60.34zm-241.359 0l30.17 30.17l-60.34 60.34l-30.17-30.17zM256 139.353c64.422 0 116.647 52.224 116.647 116.647c0 64.422-52.225 116.647-116.647 116.647A116.427 116.427 0 0 1 139.352 256c0-64.423 52.225-116.647 116.648-116.647m0 42.666c-40.859 0-73.981 33.123-73.981 74.062a73.76 73.76 0 0 0 21.603 52.296c13.867 13.867 32.685 21.64 52.378 21.603zm234.666 52.647v42.667h-85.333v-42.667zm-384 0v42.667H21.333v-42.667zM105.15 74.98l60.34 60.34l-30.17 30.17l-60.34-60.34zm301.7 0l30.169 30.17l-60.34 60.34l-30.17-30.17zM277.332 21.333v85.333h-42.667V21.333z" 
            fill="currentColor" 
            fillRule="evenodd"
        />
    </symbol>

    <symbol id="icon-menu" viewBox="0 0 1024 1024">
        <path
            d="M600.704 64a32 32 0 0 1 30.464 22.208l35.2 109.376c14.784 7.232 28.928 15.36 42.432 24.512l112.384-24.192a32 32 0 0 1 34.432 15.36L944.32 364.8a32 32 0 0 1-4.032 37.504l-77.12 85.12a357.12 357.12 0 0 1 0 49.024l77.12 85.248a32 32 0 0 1 4.032 37.504l-88.704 153.6a32 32 0 0 1-34.432 15.296L708.8 803.904c-13.44 9.088-27.648 17.28-42.368 24.512l-35.264 109.376A32 32 0 0 1 600.704 960H423.296a32 32 0 0 1-30.464-22.208L357.696 828.48a351.616 351.616 0 0 1-42.56-24.64l-112.32 24.256a32 32 0 0 1-34.432-15.36L79.68 659.2a32 32 0 0 1 4.032-37.504l77.12-85.248a357.12 357.12 0 0 1 0-48.896l-77.12-85.248A32 32 0 0 1 79.68 364.8l88.704-153.6a32 32 0 0 1 34.432-15.296l112.32 24.256c13.568-9.152 27.776-17.408 42.56-24.64l35.2-109.312A32 32 0 0 1 423.232 64H600.64zm-23.424 64H446.72l-36.352 113.088l-24.512 11.968a294.113 294.113 0 0 0-34.816 20.096l-22.656 15.36l-116.224-25.088l-65.28 113.152l79.68 88.192l-1.92 27.136a293.12 293.12 0 0 0 0 40.192l1.92 27.136l-79.808 88.192l65.344 113.152l116.224-25.024l22.656 15.296a294.113 294.113 0 0 0 34.816 20.096l24.512 11.968L446.72 896h130.688l36.48-113.152l24.448-11.904a288.282 288.282 0 0 0 34.752-20.096l22.592-15.296l116.288 25.024l65.28-113.152l-79.744-88.192l1.92-27.136a293.12 293.12 0 0 0 0-40.256l-1.92-27.136l79.808-88.128l-65.344-113.152l-116.288 24.96l-22.592-15.232a287.616 287.616 0 0 0-34.752-20.096l-24.448-11.904L577.344 128zM512 320a192 192 0 1 1 0 384a192 192 0 0 1 0-384zm0 64a128 128 0 1 0 0 256a128 128 0 0 0 0-256z"
            fill="currentColor"
        />
    </symbol>

    <symbol id="icon-trash" viewBox="0 0 26 26">
        <path 
            d="M11.5-.031c-1.958 0-3.531 1.627-3.531 3.594V4H4c-.551 0-1 .449-1 1v1H2v2h2v15c0 1.645 1.355 3 3 3h12c1.645 0 3-1.355 3-3V8h2V6h-1V5c0-.551-.449-1-1-1h-3.969v-.438c0-1.966-1.573-3.593-3.531-3.593h-3zm0 2.062h3c.804 0 1.469.656 1.469 1.531V4H10.03v-.438c0-.875.665-1.53 1.469-1.53zM6 8h5.125c.124.013.247.031.375.031h3c.128 0 .25-.018.375-.031H20v15c0 .563-.437 1-1 1H7c-.563 0-1-.437-1-1V8zm2 2v12h2V10H8zm4 0v12h2V10h-2zm4 0v12h2V10h-2z" 
            fill="currentColor"
        />
    </symbol>
    
    <symbol id="icon-x" viewBox="0 0 14 14">
        <path
            d="M1.707.293A1 1 0 0 0 .293 1.707L5.586 7L.293 12.293a1 1 0 1 0 1.414 1.414L7 8.414l5.293 5.293a1 1 0 0 0 1.414-1.414L8.414 7l5.293-5.293A1 1 0 0 0 12.293.293L7 5.586z"
            fill="currentColor"
            fillRule="evenodd"
        />
    </symbol>

    <symbol id="icon-scrollTop" viewBox="0 0 100 100" fill="none">
        <path
          fill="currentColor"
          d="m50 0c-13.262 0-25.98 5.2695-35.355 14.645s-14.645 22.094-14.645 35.355 5.2695 25.98 14.645 35.355 22.094 14.645 35.355 14.645 25.98-5.2695 35.355-14.645 14.645-22.094 14.645-35.355-5.2695-25.98-14.645-35.355-22.094-14.645-35.355-14.645zm20.832 62.5-20.832-22.457-20.625 22.457c-1.207 0.74219-2.7656 0.57812-3.7891-0.39844-1.0273-0.98047-1.2695-2.5273-0.58594-3.7695l22.918-25c0.60156-0.61328 1.4297-0.96094 2.2891-0.96094 0.86328 0 1.6914 0.34766 2.293 0.96094l22.918 25c0.88672 1.2891 0.6875 3.0352-0.47266 4.0898-1.1562 1.0508-2.9141 1.0859-4.1133 0.078125z"
        />
    </symbol>

    <symbol></symbol>
    
    <symbol id="slx-reset" viewBox="14 35 1173 219.2">
        <path d="M61 94a1 1 0 000 94 1 1 0 000-94Zm94 0a1 1 0 003 94 1 1 0 00-3-94Zm-77.8 36-.1 20H61.4v13.4l-24.1-23 24.2-22.8v12.6l15.7-.1Zm63.6 20 .2-20h15.5V117.7L181 140.4 156.5 163l-.1-13H140.8Zm80.1-10.2V141H267v7.3l22.6-8-22.5-6.3v5.8ZM351 93.7a1 1 0 00.7 94.2A1 1 0 00351 93.7Zm-15.3 56.4V130.3h15.9l-.1-12.8 24.3 22.9-24.4 22.5-.1-12.7-15.6-.2Zm81.4-9.2V140l45.1.1V134l23.3 6.8-23.3 7.1-.1-6.9Zm96-106H972.6q11.2 0 11.2 11.5V235.6q.1 12.6-12.1 12.5l-458.2-.2q-11.6 0-11.6-11.4L502 46.1q0-11.1 11.1-11.2Zm38.4 87.5a1 1 0 000 12.9 1 1 0 000-12.9Zm0-3.2a1 1 0 000 19.5 1 1 0 000-19.5Zm-1.2-3.2a1 1 0 003.6 0l.1-5.8a1 1 0 00-3.6-.1l-.1 5.9Zm6.7.5a1 1 0 003 2.4l1.1-1.3a1 1 0 00-3.1-2.2l-1 1.1Zm5.3 4.5a1 1 0 002.2 3.2l5-3.1a1 1 0 00-2.6-3.1Zm2.2 6.2a1 1 0 00.3 3.6l2.4.1a1 1 0 00-.4-3.7Zm-.6 6.4a1 1 0 00-1.9 3.3l5.6 3.5a1 1 0 001.6-3.8Zm-4.1 5.5a1 1 0 00-3 1.8l1 1.6a1 1 0 003-2Zm-6 2.7a1 1 0 00-3.7.2v5.8a1 1 0 003.8.1Zm-6.8-.4a1 1 0 00-2.8-1.9l-1 1.2a1 1 0 003.1 1.9Zm-5.8-3.9a1 1 0 00-1.8-3.4l-4.6 2.6a1 1 0 001.9 3.4Zm-2.8-6.6a1 1 0 00.3-3.8h-1.5a1 1 0 00.1 3.8Zm.6-7a1 1 0 002.1-3.3l-4.1-2.5a1 1 0 00-2.3 3.2Zm4.6-5.5a1 1 0 003.4-2l-.5-.9a1 1 0 00-3.5 1.9Zm44.8 27.9h9.9l-.1-38.9c15.9.6 11.7 1.1 35.2 39l12.2-.1c-16.8-26.1-20.6-37.7-30.3-40.6a1 1 0 00.1-46.4l-26.6.4Zm10-48.1 16.9-.1a1 1 0 00.1-30.5l-17 .2Zm56.1 47.7H702v-9.1H663.5l.1-30.6 34-.1V97l-33.9.2.2-28.3 36.8-.2-.1-9.2H654.3Zm57-23.4a1 1 0 0056-4.1c-2.3-16.7-21-20.5-33.9-24.6-14.1-4.3-15.1-22.6.5-26.2 10.8-2.3 18.9.4 21.7 14.5l8.2-1.8a1 1 0 00-49.7 4.6c.9 15 13.8 16.7 35.2 24.4 11.3 3.7 11.2 23.4-.3 28.6-14.8 5.1-27.8-5.5-28.8-16.2ZM780.4 146l48.1.3v-9.6H789.3V106.2l34.2-.2V97.4l-34.1-.1.1-28.7h37.2V59.5H780.3Zm80 .3h9.1l.4-77.5h23.8V59.3l-57.2.1v9.1l23.8-.1Zm62.1-21.1h8.2c0-18.7 1.2-8.3 19-33.7A1 1 0 00904.9 72.6c-1.6 3.4-2.5 6.5-3.2 9.9l8.7.4c3.8-13.2 9.9-20 21.2-16.5 11.3 3.7 14.1 16.8 10.1 22-14.7 18.3-19 19.3-19.1 30.5Zm0 11.7v8.8l8.3-.1v-8.7ZM534.5 190l18.8 19.3V198.8h30.3l.3 10.4 19.7-19-19.7-19.8v10.8H553.7V170.3Zm100.6-7.3a1 1 0 0021.7 28c6.3-5.1 7.3-10.1 7-17.5l27.3-17.3c.7-1.8.8-3.4.4-5L660 190l-1.5-.6.1-2.3L690 168.2c-1.3-1.5-3.2-2.2-5.3-2.1l-27.4 16.4c-8.5-5.7-16.1-4.5-22.2.2Zm-1.6 18.9a1 1 0 008.8.1 1 1 0 00-8.8-.1Zm79.9-11.2 19.9 19.8-.1-11.6h8.3l.1-16.7H733l.1-11.2Zm45 8.3h7.9v11.5l20.2-19.8-20.2-19.9v11.2h-8Zm48.2-1.1 10.3 18.2c9-5.3 12.9 1.7 22.1-3l28.3-17.4a1 1 0 00-3.2-3.8l-15.2 9.1c-2.4 1.5-4-1.5-2-2.8l20.3-12.3a1 1 0 00-2.8-3.6l-19.5 12c-2.2 1.2-3.6-2.1-2-3.1l25.7-15.6a1 1 0 00-2.6-3.4l-25.1 15c-2.2 1.2-3.9-1.4-1.7-2.8l21-13.2a1 1 0 00-3.4-3.5l-23.5 14.1c-2.1 1.3-5.5-1.1-4.8-4.2l1.7-8.4a1 1 0 00-5.5-1.2c-3.2 15.2-4.2 21.4-18.1 29.8m105.8 19.6 31.7-.1-4.3-25.3 12.4.1-23.6-27.2-24.7 27.2 13.3-.1Zm88.7-77.3V141l45.8-.1v6.8l24.5-7.1-24.5-6.8v5.9Zm85.4.7a1 1 0 0095-1.3 1 1 0 00-95 1.3Zm42.1.1c.2 19.7-23.3 19.8-23.2.2-.2-18.6 23.2-18.6 23.2-.2Zm4.5.1c0 24.2-32.8 24-32.7.2-.1-23.6 32.7-23.5 32.7-.2Zm5.3 17v-34h4.7l-.1 16.4 17.2-16.7h5.8l-14 14.2 15.1 20-7-.1-11.5-16.6-5.4 5.3-.1 11.5Z" 
        stroke="currentColor" 
        stroke-width="3" 
        fill="none"/>
    </symbol>
</svg>