<?xml version="1.0" encoding="UTF-8" standalone="no"?>
<!-- Created with Inkscape (http://www.inkscape.org/) -->

<svg
   version="1.1"
   id="svg1"
   width="209.24294"
   height="209.77327"
   viewBox="0 0 209.24294 209.77327"
   sodipodi:docname="sta-15.png"
   inkscape:version="0.0"
   inkscape:export-filename="D:\Mrx\Desktop\vorläufige bilder\bde_sta-15.svg"
   inkscape:export-xdpi="96"
   inkscape:export-ydpi="96"
   xmlns:inkscape="http://www.inkscape.org/namespaces/inkscape"
   xmlns:sodipodi="http://sodipodi.sourceforge.net/DTD/sodipodi-0.dtd"
   xmlns="http://www.w3.org/2000/svg"
   xmlns:svg="http://www.w3.org/2000/svg">
  <defs
     id="defs1" />
  <sodipodi:namedview
     id="namedview1"
     pagecolor="#505050"
     bordercolor="#eeeeee"
     borderopacity="1"
     inkscape:showpageshadow="0"
     inkscape:pageopacity="0"
     inkscape:pagecheckerboard="0"
     inkscape:deskcolor="#505050"
     inkscape:zoom="15.928882"
     inkscape:cx="130.89431"
     inkscape:cy="156.22566"
     inkscape:window-width="2560"
     inkscape:window-height="1377"
     inkscape:window-x="1912"
     inkscape:window-y="113"
     inkscape:window-maximized="1"
     inkscape:current-layer="g1">
    <inkscape:page
       x="0"
       y="0"
       width="209.24294"
       height="209.77327"
       id="page2"
       margin="0"
       bleed="0" />
  </sodipodi:namedview>
  <g
     id="g67"
     inkscape:label="BDE_STA-15"
     transform="translate(0.14644664,0.32322329)">
    <rect
       style="display:inline;fill:#ffffff;fill-opacity:1;fill-rule:evenodd;stroke:#000000;stroke-width:1;stroke-linecap:round;stroke-dasharray:none;stroke-opacity:1"
       id="rect67"
       width="208.24295"
       height="208.77327"
       x="0.35355335"
       y="0.17677669"
       ry="13.965359"
       inkscape:label="Rahmen"
       inkscape:export-filename="bde_sta-15.svg"
       inkscape:export-xdpi="96"
       inkscape:export-ydpi="96" />
    <g
       id="g63"
       inkscape:label="Logo">
      <path
         style="display:inline;fill:#000000;fill-opacity:1;stroke:none;stroke-width:0.8;stroke-linecap:round;stroke-linejoin:round;stroke-dasharray:none;stroke-opacity:1"
         d="m 79.208503,172.5875 0.04197,5.1085 c -0.0023,-0.29005 -1.593913,-0.7156 -2.427526,-0.7156 -3.260977,0 -4.826343,2.50569 -4.815033,4.67006 -0.0054,2.67945 2.540454,4.63887 5.069548,4.63887 2.752333,0.002 4.775566,-2.45075 4.798182,-4.63887 -7.59e-4,-0.52327 0,-9.06296 0,-9.06296 z m -9.097116,4.35221 c -0.975828,-0.036 -2.035103,0.19724 -2.999692,0.81275 l -0.0031,-0.45091 -2.460847,-0.005 -0.0271,8.9922 h 2.527129 l -0.05966,-5.24633 c -0.0085,-1.76989 2.890244,-2.45269 4.200508,-1.42641 l 1.322784,-1.87404 c -0.631897,-0.46038 -1.524634,-0.76547 -2.500462,-0.80137 z m -37.303387,0.002 c -0.975827,-0.0359 -2.035102,0.19688 -2.99969,0.81239 l -0.0028,-0.45092 -2.460853,-0.005 -0.02707,8.99219 h 2.526739 l -0.05921,-5.24633 c -0.0085,-1.7699 2.890241,-2.4527 4.200508,-1.42642 l 1.322391,-1.87403 c -0.631899,-0.46037 -1.524244,-0.76508 -2.50007,-0.80101 z m 6.873524,0.0688 c -2.393103,-0.002 -4.79173,1.46243 -4.839742,4.39693 l -0.0082,0.80836 c -0.0084,4.07344 7.129621,5.98055 9.232022,1.43447 l -2.347911,-0.38822 c -2.060175,2.03662 -4.26441,0.0714 -4.273058,-0.95094 l 7.053134,0.008 -0.0086,-0.9033 c -0.02687,-2.9334 -2.414481,-4.40274 -4.807581,-4.40499 z m 18.896991,0 c -3.260977,0 -4.809479,2.47416 -4.798171,4.63852 -0.0054,2.67947 2.540462,4.63889 5.069556,4.63889 2.752331,0.002 4.775557,-2.45075 4.798173,-4.63889 -0.0031,-2.09303 -1.735114,-4.63852 -5.069558,-4.63852 z m -8.227676,7.1e-4 c -2.54176,-0.0414 -4.791379,1.78984 -4.793465,4.63558 0.03674,4.34004 5.533034,6.19976 8.435133,3.10653 l -1.756908,-1.60166 c -1.895657,2.02993 -4.271009,0.14809 -4.317377,-1.50487 -0.04674,-1.66675 2.0325,-3.36848 4.129133,-1.58844 l 1.767107,-1.7494 c -1.092346,-0.87335 -2.308279,-1.2789 -3.463623,-1.29774 z m -10.661863,2.2102 c 1.099944,-7.1e-4 2.202098,0.5617 2.206332,1.70282 -1.466596,-0.008 -2.96705,-0.0158 -4.399727,-0.0239 -0.0043,-1.11339 1.093453,-1.678 2.193395,-1.67899 z m 19.004054,0.0385 c 1.282913,0.007 2.561804,0.82838 2.556152,2.4965 -0.0031,3.00871 -5.11759,3.02542 -5.137397,-0.10742 0.01131,-1.58887 1.298334,-2.39605 2.581245,-2.38908 z m 18.227566,0.002 c 1.282914,0.007 2.561805,0.82839 2.556153,2.4965 -0.0031,3.00873 -5.117592,3.02544 -5.1374,-0.1074 0.01131,-1.5889 1.298334,-2.39608 2.581247,-2.3891 z"
         id="path2420"
         inkscape:label="Text" />
      <rect
         style="display:inline;fill:none;fill-rule:evenodd;stroke:#000000;stroke-width:1.5;stroke-linejoin:round;stroke-dasharray:none;stroke-opacity:1"
         id="rect63"
         width="82.5"
         height="34.1875"
         x="12.5"
         y="136.8125"
         inkscape:label="Rahmen" />
      <path
         style="display:inline;fill:#000000;fill-opacity:1;stroke:none;stroke-width:1.18608;stroke-linecap:round;stroke-linejoin:round;stroke-dasharray:none;stroke-opacity:1"
         d="m 37.899545,138.49216 -9.671012,15.41404 9.446618,15.41405 H 59.548044 L 49.96072,153.9062 59.537925,138.49216 Z m 23.488711,0 -1.202899,1.95231 7.93196,-0.0263 8.548123,13.48812 -8.597785,13.35451 -7.892414,-0.0273 1.322454,2.08676 h 7.931957 l 9.84023,-15.41404 -9.701361,-15.41405 z m -5.556508,1.98778 -8.604219,13.42626 8.674111,13.3545 H 39.232114 l -8.393622,-13.3545 8.354075,-13.40812 z m 0.0046,6.92592 -1.22221,1.94162 3.134159,4.55872 -3.091857,4.50596 1.123811,2.06777 4.541217,-6.57373 z"
         id="path2419"
         inkscape:label="Symbol" />
    </g>
    <g
       id="g11"
       inkscape:label="Nacht"
       style="stroke-width:1.5;stroke-dasharray:none">
      <path
         id="path7"
         style="fill:none;fill-rule:evenodd;stroke:#000000;stroke-width:1.9;stroke-dasharray:none;stroke-opacity:1"
         d="m 131.36328,156.76895 c -3.97036,-0.0968 -7.62939,3.20264 -7.93941,7.16233 -0.0931,4.48353 -0.0156,8.97272 -0.0411,13.45849 0.008,2.25382 -0.2097,4.66147 1.05444,6.66161 1.49119,2.69426 4.61684,4.23777 7.6588,4.00077 5.06751,-0.0147 10.13641,0.0298 15.20303,-0.0229 2.89979,-0.1848 5.59431,-2.10754 6.7185,-4.78573 -1.53352,2.00247 -4.12002,2.91742 -6.58785,2.72461 -4.58129,-0.0235 -9.16573,0.0479 -13.74499,-0.0373 -3.74197,-0.2819 -6.75763,-3.85377 -6.5031,-7.57714 0.0236,-4.76384 -0.048,-9.53082 0.0373,-14.29262 0.28305,-3.7781 3.91283,-6.79787 7.6668,-6.50311 4.72859,0.0221 9.45993,-0.0453 14.18673,0.0355 0.68771,-0.0644 2.91317,0.91498 1.30314,0.0718 -2.37931,-1.29578 -5.13088,-0.7951 -7.71834,-0.89635 -3.76465,0 -7.52931,0 -11.29396,0 z m 19.75,1.33203 c -2.13762,-0.84897 -4.46566,-0.44922 -6.70624,-0.54297 -3.57375,0.0228 -7.15057,-0.0469 -10.7223,0.0373 -3.7781,0.28306 -6.79787,3.91284 -6.5031,7.66681 0.0236,4.73331 -0.048,9.46977 0.0373,14.20104 0.28329,3.77795 3.91205,6.79989 7.6668,6.50504 4.69981,-0.0176 9.4016,0.0357 14.10012,-0.0276 1.98972,-0.18064 4.00259,-1.19442 5.10798,-2.88018 0.89206,-2.2038 0.47518,-4.61364 0.57221,-6.92539 -0.0227,-4.05236 0.0464,-8.10754 -0.0366,-12.15803 -0.20925,-2.3582 -1.53918,-4.57496 -3.51616,-5.87597 z"
         inkscape:label="Button" />
      <circle
         style="opacity:1;fill:none;fill-rule:evenodd;stroke:#000000;stroke-width:1;stroke-linecap:round;stroke-dasharray:none;stroke-opacity:1"
         id="circle11"
         cx="162.47217"
         cy="163.66498"
         r="3.1389523"
         inkscape:label="LED" />
      <path
         id="circle59"
         style="opacity:1;fill:none;fill-rule:evenodd;stroke:#000000;stroke-width:1.8;stroke-linecap:round;stroke-linejoin:round;stroke-dasharray:none"
         inkscape:label="Symbol"
         d="m 151.71659,170.01295 a 3.1389523,3.1389523 0 0 1 -3.13895,3.13896 3.1389523,3.1389523 0 0 1 -3.13896,-3.13896 3.1389523,3.1389523 0 0 1 3.13896,-3.13895 3.1389523,3.1389523 0 0 1 3.13895,3.13895 z m -14.60716,-0.0714 v 3.71039 z m -3.19388,-0.0234 v 5.28756 z m -3.03693,-0.0224 v 3.56271 z m 14.56006,0.11716 -14.56006,-0.11716 z" />
    </g>
    <g
       id="g12"
       inkscape:label="Ausgang"
       transform="translate(0,-0.35699028)">
      <path
         id="path6"
         style="fill:none;fill-rule:evenodd;stroke:#000000;stroke-width:1.9;stroke-dasharray:none;stroke-opacity:1"
         d="m 131.36328,123.30772 c -3.97036,-0.0968 -7.62939,3.20264 -7.93941,7.16233 -0.0931,4.48353 -0.0156,8.97272 -0.0411,13.45849 0.008,2.25382 -0.2097,4.66147 1.05444,6.66161 1.49119,2.69426 4.61684,4.23777 7.6588,4.00077 5.06751,-0.0147 10.13641,0.0298 15.20303,-0.0229 2.89979,-0.1848 5.59431,-2.10754 6.7185,-4.78573 -1.53352,2.00247 -4.12002,2.91742 -6.58785,2.72461 -4.58129,-0.0235 -9.16573,0.0479 -13.74499,-0.0373 -3.74197,-0.2819 -6.75763,-3.85377 -6.5031,-7.57714 0.0236,-4.76384 -0.048,-9.53082 0.0373,-14.29262 0.28305,-3.7781 3.91283,-6.79787 7.6668,-6.50311 4.72859,0.0221 9.45993,-0.0453 14.18673,0.0355 0.68771,-0.0644 2.91317,0.91498 1.30314,0.0718 -2.37931,-1.29578 -5.13088,-0.7951 -7.71834,-0.89635 -3.76465,0 -7.52931,0 -11.29396,0 z m 19.75,1.33203 c -2.13762,-0.84897 -4.46566,-0.44922 -6.70624,-0.54297 -3.57375,0.0228 -7.15057,-0.0469 -10.7223,0.0373 -3.7781,0.28306 -6.79787,3.91284 -6.5031,7.66681 0.0236,4.73331 -0.048,9.46977 0.0373,14.20104 0.28329,3.77795 3.91205,6.79989 7.6668,6.50504 4.69981,-0.0176 9.4016,0.0357 14.10012,-0.0276 1.98972,-0.18064 4.00259,-1.19442 5.10798,-2.88018 0.89206,-2.2038 0.47518,-4.61364 0.57221,-6.92539 -0.0227,-4.05236 0.0464,-8.10754 -0.0366,-12.15803 -0.20925,-2.3582 -1.53918,-4.57496 -3.51616,-5.87597 z"
         inkscape:label="Button" />
      <circle
         style="opacity:1;fill:none;fill-rule:evenodd;stroke:#000000;stroke-width:1;stroke-linecap:round;stroke-dasharray:none;stroke-opacity:1"
         id="circle10"
         cx="162.47217"
         cy="129.63873"
         r="3.1389523"
         inkscape:label="LED" />
      <path
         id="path59"
         style="opacity:1;fill:#010000;fill-opacity:1;fill-rule:evenodd;stroke:none;stroke-width:1.5;stroke-linecap:round;stroke-dasharray:none;stroke-opacity:1"
         d="m 140.97461,129.94531 a 8.1937771,8.1937771 0 0 0 -8.19336,8.19336 8.1937771,8.1937771 0 0 0 8.19336,8.19336 8.1937771,8.1937771 0 0 0 8.19336,-8.19336 8.1937771,8.1937771 0 0 0 -8.19336,-8.19336 z m -5.6543,6.84961 h 11.51953 v 2.82617 h -11.51953 z"
         inkscape:label="Symbol" />
    </g>
    <g
       id="g13"
       inkscape:label="Offen"
       transform="translate(0,-0.27453055)">
      <path
         id="path5"
         style="fill:none;fill-rule:evenodd;stroke:#000000;stroke-width:1.9;stroke-dasharray:none;stroke-opacity:1"
         d="m 131.36328,89.407038 c -3.97036,-0.09677 -7.62939,3.202638 -7.93941,7.162324 -0.0931,4.483538 -0.0156,8.972728 -0.0411,13.458498 0.008,2.25382 -0.2097,4.66147 1.05444,6.66161 1.49119,2.69426 4.61684,4.23777 7.6588,4.00077 5.06751,-0.0147 10.13641,0.0298 15.20303,-0.0229 2.89979,-0.1848 5.59431,-2.10754 6.7185,-4.78573 -1.53352,2.00247 -4.12002,2.91742 -6.58785,2.72461 -4.58129,-0.0235 -9.16573,0.0479 -13.74499,-0.0373 -3.74197,-0.2819 -6.75763,-3.85377 -6.5031,-7.57714 0.0236,-4.76384 -0.048,-9.53082 0.0373,-14.292626 0.28305,-3.778097 3.91283,-6.797872 7.6668,-6.503105 4.72859,0.02213 9.45993,-0.04526 14.18673,0.03552 0.68771,-0.06444 2.91317,0.914975 1.30314,0.07177 -2.37931,-1.29578 -5.13088,-0.795099 -7.71834,-0.896355 -3.76465,0 -7.52931,0 -11.29396,0 z m 19.75,1.332031 c -2.13762,-0.848975 -4.46566,-0.449221 -6.70624,-0.542969 -3.57375,0.02279 -7.15057,-0.04688 -10.7223,0.03727 -3.7781,0.283053 -6.79787,3.912835 -6.5031,7.666808 0.0236,4.733312 -0.048,9.469772 0.0373,14.201042 0.28329,3.77795 3.91205,6.79989 7.6668,6.50504 4.69981,-0.0176 9.4016,0.0357 14.10012,-0.0276 1.98972,-0.18064 4.00259,-1.19442 5.10798,-2.88018 0.89206,-2.2038 0.47518,-4.61364 0.57221,-6.92539 -0.0227,-4.05236 0.0464,-8.10754 -0.0366,-12.158039 -0.20925,-2.358192 -1.53918,-4.574955 -3.51616,-5.875964 z"
         inkscape:label="Button" />
      <circle
         style="opacity:1;fill:none;fill-rule:evenodd;stroke:#000000;stroke-width:1;stroke-linecap:round;stroke-dasharray:none;stroke-opacity:1"
         id="circle9"
         cx="162.47217"
         cy="96.051941"
         r="3.1389523"
         inkscape:label="LED" />
      <path
         id="path58"
         style="fill:none;stroke:#000000;stroke-width:1.5;stroke-linecap:butt;stroke-linejoin:miter;stroke-dasharray:none;stroke-opacity:1"
         d="m 142.83705,106.31008 h 3.3541 v 3.59643 l 5.64735,-5.62842 -5.71665,-5.55802 v 3.90863 h -3.2848 m -3.73632,0.023 h -3.30716 v -3.928665 l -5.68211,5.593325 5.68211,5.59333 v -3.59966 l 3.30716,2e-5"
         inkscape:label="Symbol" />
    </g>
    <g
       id="g14"
       inkscape:label="Winter"
       style="stroke-width:1.5;stroke-dasharray:none"
       transform="translate(0,-0.15338628)">
      <path
         id="path4"
         style="fill:none;fill-rule:evenodd;stroke:#000000;stroke-width:1.9;stroke-dasharray:none;stroke-opacity:1"
         d="m 131.36328,55.467662 c -3.97036,-0.09677 -7.62939,3.202638 -7.93941,7.162324 -0.0931,4.48354 -0.0156,8.97272 -0.0411,13.458494 0.008,2.253818 -0.2097,4.661471 1.05444,6.661608 1.49119,2.694261 4.61684,4.23777 7.6588,4.000777 5.06751,-0.01475 10.13641,0.02982 15.20303,-0.02286 2.89979,-0.184803 5.59431,-2.107546 6.7185,-4.785736 -1.53352,2.002471 -4.12002,2.917418 -6.58785,2.724609 -4.58129,-0.02349 -9.16573,0.04786 -13.74499,-0.03729 -3.74197,-0.281898 -6.75763,-3.853763 -6.5031,-7.577142 0.0236,-4.763835 -0.048,-9.530816 0.0373,-14.292618 0.28305,-3.778097 3.91283,-6.797872 7.6668,-6.503105 4.72859,0.02213 9.45993,-0.04526 14.18673,0.03552 0.68771,-0.06444 2.91317,0.914975 1.30314,0.07177 -2.37931,-1.29578 -5.13088,-0.795099 -7.71834,-0.896355 -3.76465,0 -7.52931,0 -11.29396,0 z m 19.75,1.332031 c -2.13762,-0.848975 -4.46566,-0.449221 -6.70624,-0.542969 -3.57375,0.02279 -7.15057,-0.04688 -10.7223,0.03727 -3.7781,0.283053 -6.79787,3.912835 -6.5031,7.666808 0.0236,4.73331 -0.048,9.469765 0.0373,14.201043 0.28329,3.777948 3.91205,6.799886 7.6668,6.505035 4.69981,-0.0176 9.4016,0.03573 14.10012,-0.02762 1.98972,-0.180641 4.00259,-1.194424 5.10798,-2.880177 0.89206,-2.203799 0.47518,-4.613644 0.57221,-6.925396 -0.0227,-4.052352 0.0464,-8.107534 -0.0366,-12.158032 -0.20925,-2.358192 -1.53918,-4.574955 -3.51616,-5.875964 z"
         inkscape:label="Button" />
      <circle
         style="opacity:1;fill:none;fill-rule:evenodd;stroke:#000000;stroke-width:1;stroke-linecap:round;stroke-dasharray:none;stroke-opacity:1"
         id="circle8"
         cx="162.47217"
         cy="62.214035"
         r="3.1389523"
         inkscape:label="LED" />
      <path
         id="path56"
         style="fill:none;stroke:#000000;stroke-width:1.5;stroke-linecap:round;stroke-linejoin:round;stroke-dasharray:none;stroke-opacity:1"
         d="m 135.36376,77.900506 -0.0559,-3.768545 -3.30167,-1.801129 3.30167,1.801129 z m 11.78533,-15.171957 0.15347,3.765852 3.34723,1.714972 -3.34723,-1.714972 z m 2.05874,2.58434 -16.08945,10.146869 z m -17.3281,3.034814 3.35713,-1.713105 0.15932,-3.757617 -0.15932,3.757617 z m 18.81548,3.880723 -3.31164,1.799508 -0.0619,3.760485 0.0619,-3.760485 z m -1.41063,2.987863 -16.20544,-9.96058 z m -4.78944,4.120939 -3.2128,-1.97053 -3.28895,1.824244 3.28895,-1.824244 z m -6.5042,-18.076973 3.26277,1.886639 3.24059,-1.908835 -3.24059,1.908835 z m 3.28497,-0.355132 -0.0444,19.021753 z"
         inkscape:label="Symbol" />
    </g>
    <g
       id="g15"
       inkscape:label="Automat"
       style="stroke-width:1.5;stroke-dasharray:none">
      <path
         id="path3"
         style="fill:none;fill-rule:evenodd;stroke:#000000;stroke-width:1.9;stroke-dasharray:none;stroke-opacity:1"
         d="m 131.36328,21.496094 c -3.97036,-0.09677 -7.62939,3.202638 -7.93941,7.162324 -0.0931,4.48354 -0.0156,8.97272 -0.0411,13.458494 0.008,2.253818 -0.2097,4.661471 1.05444,6.661608 1.49119,2.694261 4.61684,4.23777 7.6588,4.000777 5.06751,-0.01475 10.13641,0.02982 15.20303,-0.02286 2.89979,-0.184803 5.59431,-2.107546 6.7185,-4.785736 -1.53352,2.002471 -4.12002,2.917418 -6.58785,2.724609 -4.58129,-0.02349 -9.16573,0.04786 -13.74499,-0.03729 -3.74197,-0.281898 -6.75763,-3.853763 -6.5031,-7.577142 0.0236,-4.763835 -0.048,-9.530816 0.0373,-14.292618 0.28305,-3.778097 3.91283,-6.797872 7.6668,-6.503105 4.72859,0.02213 9.45993,-0.04526 14.18673,0.03552 0.68771,-0.06444 2.91317,0.914975 1.30314,0.07177 -2.37931,-1.29578 -5.13088,-0.795099 -7.71834,-0.896355 -3.76465,0 -7.52931,0 -11.29396,0 z m 19.75,1.332031 c -2.13762,-0.848975 -4.46566,-0.449221 -6.70624,-0.542969 -3.57375,0.02279 -7.15057,-0.04688 -10.7223,0.03727 -3.7781,0.283053 -6.79787,3.912835 -6.5031,7.666808 0.0236,4.73331 -0.048,9.469765 0.0373,14.201043 0.28329,3.777948 3.91205,6.799886 7.6668,6.505035 4.69981,-0.0176 9.4016,0.03573 14.10012,-0.02762 1.98972,-0.180641 4.00259,-1.194424 5.10798,-2.880177 0.89206,-2.203799 0.47518,-4.613644 0.57221,-6.925396 -0.0227,-4.052352 0.0464,-8.107534 -0.0366,-12.158032 -0.20925,-2.358192 -1.53918,-4.574955 -3.51616,-5.875964 z"
         inkscape:label="Button" />
      <circle
         style="opacity:1;fill:none;fill-rule:evenodd;stroke:#000000;stroke-width:1;stroke-linecap:round;stroke-dasharray:none;stroke-opacity:1"
         id="path8"
         cx="162.47217"
         cy="28.438908"
         r="3.1389523"
         inkscape:label="LED" />
      <path
         id="circle15"
         style="baseline-shift:baseline;display:inline;overflow:visible;opacity:1;fill-rule:evenodd;stroke:#000000;stroke-width:0.5;stroke-linecap:round;stroke-dasharray:none;stroke-opacity:1;enable-background:accumulate;stop-color:#000000;stop-opacity:1"
         d="m 140.68945,26.619141 v 6.048828 c -0.62765,0.092 -1.18966,0.330592 -1.67187,0.705078 l -4.14453,-4.394531 -0.72266,0.701172 4.16797,4.417968 c -0.38317,0.522407 -0.63358,1.127499 -0.69922,1.808594 l -6.09766,0.0098 0.002,1.013672 6.16211,-0.0098 c 0.11345,0.597291 0.3449,1.135705 0.70703,1.59375 l -4.40625,4.443359 0.70508,0.71875 4.4375,-4.474609 c 0.45933,0.330394 0.97918,0.543664 1.56054,0.628906 v 6.369141 h 1 v -6.369141 c 0.55151,-0.08087 1.04694,-0.275018 1.49024,-0.578125 l 4.32617,4.585938 0.72266,-0.701172 -4.29102,-4.548828 c 0.3944,-0.474543 0.6415,-1.045486 0.75977,-1.677735 l 6.16211,-0.0098 -0.002,-1.013672 -6.09961,0.0098 c -0.0639,-0.644662 -0.29369,-1.218389 -0.64453,-1.722656 l 4.28125,-4.314453 -0.70703,-0.716797 -4.24805,4.283203 c -0.49661,-0.406393 -1.09018,-0.661094 -1.75,-0.757812 v -6.048828 z m 0.50196,7.123047 c 1.43597,0 2.58203,1.136629 2.58203,2.544921 0,1.408293 -1.14606,2.544922 -2.58203,2.544922 -1.43598,0 -2.58399,-1.136629 -2.58399,-2.544922 0,-1.408292 1.14801,-2.544921 2.58399,-2.544921 z"
         inkscape:label="Symbol" />
    </g>
    <path
       id="circle67"
       style="opacity:1;fill:none;fill-rule:evenodd;stroke:#000000;stroke-linecap:round"
       inkscape:label="Loch"
       d="m 18.858687,103.83012 a 3.99506,3.99506 0 0 1 -3.99506,3.99506 3.99506,3.99506 0 0 1 -3.99506,-3.99506 3.99506,3.99506 0 0 1 3.99506,-3.995064 3.99506,3.99506 0 0 1 3.99506,3.995064 z M 197.7567,104.714 a 3.99506,3.99506 0 0 1 -3.99506,3.99506 3.99506,3.99506 0 0 1 -3.99506,-3.99506 3.99506,3.99506 0 0 1 3.99506,-3.99506 3.99506,3.99506 0 0 1 3.99506,3.99506 z" />
  </g>
</svg>
