<?xml version="1.0" encoding="UTF-8" standalone="no"?>
<svg
   version="1.1"
   width="187.67999"
   height="187.88518"
   viewBox="333.6118 362.414 187.67999 187.88518"
   id="svg66"
   sodipodi:docname="svg_1751743932792.svg"
   xmlns:inkscape="http://www.inkscape.org/namespaces/inkscape"
   xmlns:sodipodi="http://sodipodi.sourceforge.net/DTD/sodipodi-0.dtd"
   xmlns="http://www.w3.org/2000/svg"
   xmlns:svg="http://www.w3.org/2000/svg">
  <defs
     id="defs66" />
  <sodipodi:namedview
     id="namedview66"
     pagecolor="#505050"
     bordercolor="#eeeeee"
     borderopacity="1"
     inkscape:showpageshadow="0"
     inkscape:pageopacity="0"
     inkscape:pagecheckerboard="0"
     inkscape:deskcolor="#505050">
    <inkscape:page
       x="0"
       y="0"
       width="187.67999"
       height="187.88518"
       id="page2"
       margin="0"
       bleed="0" />
  </sodipodi:namedview>
  <path
     style="fill:#ffffff;fill-opacity:1;stroke:none;stroke-width:1px;stroke-linecap:butt;stroke-linejoin:miter;stroke-opacity:1"
     d="m 343.1518,362.79917 -9.42,9.48 v 178.02 h 178.02 l 9.42,-9.42 v -178.08 z"
     id="path68"
     sodipodi:nodetypes="ccccccc" />
  <path
     stroke-width="0.24"
     stroke-linecap="round"
     stroke-linejoin="round"
     fill="none"
     stroke="#000000"
     d="m 333.7318,550.034 h 178.02 v -178.02 h -178.02 z"
     id="path1"
     style="fill:none"
     sodipodi:nodetypes="ccccc" />
  <path
     stroke-width="0.24"
     stroke-linecap="round"
     stroke-linejoin="round"
     fill="none"
     stroke="#000000"
     d="m 511.7518,550.034 9.42,-9.42"
     id="path2" />
  <path
     stroke-width="0.24"
     stroke-linecap="round"
     stroke-linejoin="round"
     fill="none"
     stroke="#000000"
     d="m 333.7318,372.014 9.42,-9.48"
     id="path3" />
  <path
     stroke-width="0.24"
     stroke-linecap="round"
     stroke-linejoin="round"
     fill="none"
     stroke="#000000"
     d="m 511.7518,372.014 9.42,-9.48 h -178.02"
     id="path4"
     style="fill:none"
     sodipodi:nodetypes="ccc" />
  <path
     stroke-width="0.24"
     stroke-linecap="round"
     stroke-linejoin="round"
     fill="none"
     stroke="#000000"
     d="m 521.1718,362.534 v 178.08"
     id="path5"
     style="fill:none" />
  <path
     stroke-width="0.24"
     stroke-linecap="round"
     stroke-linejoin="round"
     fill="none"
     stroke="#000000"
     d="m 342.6118,541.154 h 160.26 v -160.26 h -160.26 z"
     id="path6"
     sodipodi:nodetypes="ccccc" />
  <path
     stroke-width="0.24"
     stroke-linecap="round"
     stroke-linejoin="round"
     fill="none"
     stroke="#000000"
     d="m 382.6318,397.574 -0.48,-1.56 -1.32,-0.96 h -1.68 l -1.32,0.96 -0.48,1.56 0.48,1.56 1.32,0.96 h 1.68 l 1.32,-0.96 0.48,-1.56"
     id="path7" />
  <path
     stroke-width="0.24"
     stroke-linecap="round"
     stroke-linejoin="round"
     fill="none"
     stroke="#000000"
     d="m 441.0118,496.934 -0.48,-1.56 -1.32,-0.96 h -1.62 l -1.32,0.96 -0.48,1.56 0.48,1.56 1.32,0.9 h 1.62 l 1.32,-0.9 0.48,-1.56"
     id="path8" />
  <path
     stroke-width="0.24"
     stroke-linecap="round"
     stroke-linejoin="round"
     fill="none"
     stroke="#000000"
     d="m 382.6318,496.934 -0.48,-1.56 -1.32,-0.96 h -1.62 l -1.32,0.96 -0.54,1.56 0.54,1.5 1.32,0.96 h 1.62 l 1.32,-0.96 0.48,-1.5"
     id="path9" />
  <path
     stroke-width="0.24"
     stroke-linecap="round"
     stroke-linejoin="round"
     fill="none"
     stroke="#000000"
     d="m 382.6318,447.254 -0.48,-1.56 -1.32,-0.96 h -1.62 l -1.32,0.96 -0.54,1.56 0.54,1.5 1.32,0.96 h 1.62 l 1.32,-0.96 0.48,-1.5"
     id="path10" />
  <path
     stroke-width="0.24"
     stroke-linecap="round"
     stroke-linejoin="round"
     fill="none"
     stroke="#000000"
     d="m 441.0118,447.254 -0.48,-1.56 -1.32,-0.96 h -1.62 l -1.32,0.96 -0.48,1.56 0.48,1.56 1.32,0.9 h 1.62 l 1.32,-0.9 0.48,-1.56"
     id="path11" />
  <path
     stroke-width="0.24"
     stroke-linecap="round"
     stroke-linejoin="round"
     fill="none"
     stroke="#000000"
     d="m 441.0118,397.574 -0.48,-1.56 -1.32,-0.9 h -1.62 l -1.32,0.9 -0.54,1.56 0.54,1.56 1.32,0.96 h 1.62 l 1.32,-0.96 0.48,-1.56"
     id="path12" />
  <path
     stroke-width="0.24"
     stroke-linecap="round"
     stroke-linejoin="round"
     fill="none"
     stroke="#000000"
     d="m 384.0718,507.854 6.42,-6.42 6.42,6.42 0.6,-0.6 -7.02,-7.02 -7.32,7.26 v 13.14 h 14.64 v -0.84 h -13.74 v -11.94"
     id="path13" />
  <path
     d="m 384.0718,519.794 v -11.94 l 6.42,-6.42 6.42,6.42 0.6,-0.6 -7.02,-7.02 -7.32,7.26 v 13.14 h 14.64 v -0.84"
     fill="#7f807f"
     fill-rule="evenodd"
     id="path14"
     style="stroke-width:0.1" />
  <path
     stroke-width="0.06"
     stroke-linecap="round"
     stroke-linejoin="round"
     fill="none"
     stroke="#7f807f"
     d="m 384.0718,519.794 v -11.94 l 6.42,-6.42 6.42,6.42 0.6,-0.6 -7.02,-7.02 -7.32,7.26 v 13.14 h 14.64 v -0.84 z"
     id="path15"
     inkscape:label="path15" />
  <path
     stroke-width="0.24"
     stroke-linecap="round"
     stroke-linejoin="round"
     fill="none"
     stroke="#000000"
     d="m 400.6318,510.374 -0.6,0.66 h -0.06 v 0.06 h -0.06 v 0.06 c 0,0.1 0,0.2 0,0.3 v 0.06 h 0.06 v 0.06 h 0.06 l 1.44,1.44 h -7.32 -0.12 v 0.06 h -0.12 v 0.06 h -0.06 v 0.06 h -0.06 v 0.06 h -0.06 v 0.18 1.8 0.18 h 0.06 v 0.06 l 0.12,0.12 h 0.06 v 0.06 h 0.18 7.5 l -1.26,1.26 -0.36,0.42 h -0.06 v 0.06 h -0.06 v 0.36 h 0.06 v 0.12 h 0.06 l 0.6,0.6 4.08,-4.02 -4.08,-4.08"
     id="path16" />
  <path
     stroke-width="0.24"
     stroke-linecap="round"
     stroke-linejoin="round"
     fill="none"
     stroke="#000000"
     d="m 442.6318,507.914 6.42,-6.42 6.42,6.42 v 3.24 h 0.9 v -3.6 l -7.32,-7.32 -7.32,7.32 v 13.14 h 14.64 v -0.84 h -13.74 v -11.94"
     id="path17" />
  <path
     d="m 442.6318,519.854 v -11.94 l 6.42,-6.42 6.42,6.42 v 3.24 h 0.9 v -3.6 l -7.32,-7.32 -7.32,7.32 v 13.14 h 14.64 v -0.84"
     fill="#7f807f"
     fill-rule="evenodd"
     id="path18"
     style="stroke-width:0.1" />
  <path
     stroke-width="0.06"
     stroke-linecap="round"
     stroke-linejoin="round"
     fill="none"
     stroke="#7f807f"
     d="m 442.6318,519.854 v -11.94 l 6.42,-6.42 6.42,6.42 v 3.24 h 0.9 v -3.6 l -7.32,-7.32 -7.32,7.32 v 13.14 h 14.64 v -0.84 z"
     id="path19" />
  <path
     stroke-width="0.24"
     stroke-linecap="round"
     stroke-linejoin="round"
     fill="none"
     stroke="#000000"
     d="m 458.7118,511.574 -0.72,0.66 v 0.06 h -0.06 v 0.18 h -0.06 v 0.18 h 0.06 v 0.12 h 0.06 v 0.06 l 1.68,1.62 h -3.3 v 1.5 h 3.24 l -1.62,1.62 v 0.06 h -0.06 v 0.18 h -0.06 v 0.18 h 0.06 v 0.12 h 0.06 v 0.06 l 0.72,0.72 3.66,-3.72 -3.66,-3.6"
     id="path20" />
  <path
     stroke-width="0.24"
     stroke-linecap="round"
     stroke-linejoin="round"
     fill="none"
     stroke="#000000"
     d="m 455.2318,514.454 h -3.42 l 1.62,-1.62 0.06,-0.06 v -0.06 h 0.06 v -0.3 h -0.06 v -0.12 h -0.06 v -0.06 l -0.72,-0.66 -3.66,3.66 3.66,3.66 0.72,-0.72 v -0.06 h 0.06 v -0.12 h 0.06 v -0.24 h -0.06 v -0.12 h -0.06 v -0.06 l -1.68,-1.62 h 3.48 v -1.5"
     id="path21" />
  <path
     stroke-width="0.24"
     stroke-linecap="round"
     stroke-linejoin="round"
     fill="none"
     stroke="#000000"
     d="m 384.2518,458.174 6.42,-6.42 6.42,6.42 0.6,-0.6 -7.02,-7.08 -7.26,7.32 v 13.14 h 14.58 v -0.84 h -13.74 v -11.94"
     id="path22" />
  <path
     d="m 384.2518,470.114 v -11.94 l 6.42,-6.42 6.42,6.42 0.6,-0.6 -7.02,-7.08 -7.26,7.32 v 13.14 h 14.58 v -0.84"
     fill="#7f807f"
     fill-rule="evenodd"
     id="path23"
     style="stroke-width:0.1" />
  <path
     stroke-width="0.06"
     stroke-linecap="round"
     stroke-linejoin="round"
     fill="none"
     stroke="#7f807f"
     d="m 384.2518,470.114 v -11.94 l 6.42,-6.42 6.42,6.42 0.6,-0.6 -7.02,-7.08 -7.26,7.32 v 13.14 h 14.58 v -0.84 z"
     id="path24" />
  <path
     stroke-width="0.24"
     stroke-linecap="round"
     stroke-linejoin="round"
     fill="none"
     stroke="#000000"
     d="m 397.4518,466.214 v -2.7 h -5.22 l 1.56,-1.56 v -0.06 h 0.06 v -0.06 c 0,-0.1 0,-0.2 0,-0.3 v -0.06 h -0.06 v -0.06 h -0.06 l -0.6,-0.66 -4.08,4.08 4.08,4.08 0.66,-0.66 v -0.06 h 0.06 v -0.06 c 0,-0.1 0,-0.2 0,-0.3 v -0.06 h -0.06 v -0.06 l -1.5,-1.5 h 5.16"
     id="path25" />
  <path
     stroke-width="0.24"
     stroke-linecap="round"
     stroke-linejoin="round"
     fill="none"
     stroke="#000000"
     d="m 402.9118,460.874 -0.66,0.66 h -0.06 v 0.12 h -0.06 v 0.3 h 0.06 v 0.12 h 0.06 l 1.44,1.44 h -5.1 v 2.7 h 5.22 l -1.56,1.56 v 0.06 h -0.06 v 0.12 h -0.06 v 0.24 h 0.06 v 0.12 h 0.06 v 0.06 l 0.66,0.6 4.02,-4.02 -4.02,-4.08"
     id="path26" />
  <path
     stroke-width="0.24"
     stroke-linecap="round"
     stroke-linejoin="round"
     fill="none"
     stroke="#000000"
     d="m 455.7718,457.814 -7.26,-7.26 -7.32,7.26 v 13.2 h 14.58 v -0.9 h -13.74 v -11.88 l 6.48,-6.48 6.42,6.42 v 1.14 h 0.84 v -1.5"
     id="path27" />
  <path
     d="m 455.7718,459.314 v -1.5 l -7.26,-7.26 -7.32,7.26 v 13.2 h 14.58 v -0.9 h -13.74 v -11.88 l 6.48,-6.48 6.42,6.42 v 1.14"
     fill="#7f807f"
     fill-rule="evenodd"
     id="path28"
     style="stroke-width:0.1" />
  <path
     stroke-width="0.06"
     stroke-linecap="round"
     stroke-linejoin="round"
     fill="none"
     stroke="#7f807f"
     d="m 455.7718,459.314 v -1.5 l -7.26,-7.26 -7.32,7.26 v 13.2 h 14.58 v -0.9 h -13.74 v -11.88 l 6.48,-6.48 6.42,6.42 v 1.14 z"
     id="path29" />
  <path
     stroke-width="0.24"
     stroke-linecap="round"
     stroke-linejoin="round"
     fill="none"
     stroke="#000000"
     d="m 397.9318,407.894 -7.32,-7.26 -7.32,7.26 v 13.2 h 14.64 v -0.9 h -0.06 l 0.06,-12.3"
     id="path30" />
  <path
     stroke-width="0.24"
     stroke-linecap="round"
     stroke-linejoin="round"
     fill="none"
     stroke="#000000"
     d="m 384.1918,408.314 6.42,-6.48 6.42,6.42 v 11.94 h -12.84 v -11.88"
     id="path31" />
  <path
     d="m 397.8718,420.194 0.06,-12.3 -7.32,-7.26 -7.32,7.26 v 13.2 h 14.64 v -0.9 z m -13.68,0 v -11.88 l 6.42,-6.48 6.42,6.42 v 11.94 h -12.84"
     fill="#7f807f"
     fill-rule="evenodd"
     id="path32"
     style="stroke-width:0.1" />
  <path
     stroke-width="0.06"
     stroke-linecap="round"
     stroke-linejoin="round"
     fill="none"
     stroke="#7f807f"
     d="m 397.8718,420.194 0.06,-12.3 -7.32,-7.26 -7.32,7.26 v 13.2 h 14.64 v -0.9 z m -13.68,0 v -11.88 l 6.42,-6.48 6.42,6.42 v 11.94 z"
     id="path33" />
  <path
     stroke-width="0.24"
     stroke-linecap="round"
     stroke-linejoin="round"
     fill="none"
     stroke="#000000"
     d="m 463.2718,407.834 h 1.14 l -1.92,-2.28 1.86,-1.98 h -1.08 l -1.56,1.68 h -0.6 v -3.06 h -0.9 v 5.64 h 0.9 v -1.86 h 0.6 l 1.56,1.86"
     id="path34" />
  <path
     d="m 461.7118,405.974 1.56,1.86 h 1.14 l -1.92,-2.28 1.86,-1.98 h -1.08 l -1.56,1.68 h -0.6 v -3.06 h -0.9 v 5.64 h 0.9 v -1.86"
     fill="#7f807f"
     fill-rule="evenodd"
     id="path35"
     style="stroke-width:0.1" />
  <path
     stroke-width="0.06"
     stroke-linecap="round"
     stroke-linejoin="round"
     fill="none"
     stroke="#7f807f"
     d="m 461.7118,405.974 1.56,1.86 h 1.14 l -1.92,-2.28 1.86,-1.98 h -1.08 l -1.56,1.68 h -0.6 v -3.06 h -0.9 v 5.64 h 0.9 v -1.86 z"
     id="path36" />
  <path
     stroke-width="0.24"
     stroke-linecap="round"
     stroke-linejoin="round"
     fill="none"
     stroke="#000000"
     d="m 471.4318,407.114 0.24,0.3 0.06,0.06 v 0.06 h 0.06 v 0.06 h 0.12 v 0.06 h 0.06 v 0.06 h 0.12 v 0.06 h 0.12 v 0.06 h 0.12 l 0.06,0.06 h 0.24 v 0.06 h 0.3 0.3 l 0.06,-0.06 h 0.3 v -0.06 h 0.12 l 0.06,-0.06 h 0.12 l 0.06,-0.06 h 0.06 l 0.06,-0.06 h 0.06 v -0.06 h 0.12 v -0.06 h 0.06 v -0.06 h 0.06 l 0.06,-0.06 h 0.06 v -0.06 h 0.06 v -0.06 h 0.06 v -0.06 h 0.06 v -0.06 l 0.06,-0.06 v -0.06 h 0.06 v -0.06 h 0.06 v -0.12 h 0.06 v -0.06 l 0.06,-0.06 v -0.06 l 0.06,-0.06 v -0.12 h 0.06 v -0.18 h 0.06 v -0.3 h 0.06 v -0.36 -0.36 h -0.06 v -0.24 l -0.06,-0.06 v -0.12 l -0.06,-0.06 v -0.12 h -0.06 v -0.12 h -0.06 v -0.12 h -0.06 v -0.06 h -0.06 v -0.12 h -0.06 v -0.06 h -0.06 v -0.06 h -0.06 v -0.06 h -0.06 v -0.06 h -0.06 v -0.06 h -0.06 v -0.06 h -0.06 v -0.06 h -0.06 v -0.06 h -0.12 v -0.06 h -0.12 v -0.06 h -0.06 v -0.06 h -0.12 l -0.06,-0.06 h -0.12 l -0.06,-0.06 h -0.18 v -0.06 h -0.06 c -0.14,0 -0.28,0 -0.42,0 h -0.06 -0.06 c -0.12,0 -0.24,0 -0.36,0 h -0.06 v 0.06 h -0.18 v 0.06 h -0.18 v 0.06 h -0.06 l -0.06,0.06 h -0.06 v 0.06 h -0.06 l -0.06,0.06 h -0.06 v 0.06 h -0.06 v 0.06 l -0.24,0.24 v -1.98 h -0.9 v 5.64 h 0.9 v -0.72"
     id="path37" />
  <path
     stroke-width="0.24"
     stroke-linecap="round"
     stroke-linejoin="round"
     fill="none"
     stroke="#000000"
     d="m 472.8118,407.174 h -0.3 v -0.06 h -0.24 v -0.06 h -0.12 v -0.06 h -0.12 v -0.06 h -0.06 l -0.06,-0.06 h -0.06 v -0.06 h -0.06 v -0.06 h -0.06 v -0.06 h -0.06 v -0.06 l -0.06,-0.06 v -0.06 h -0.06 v -0.12 h -0.06 v -0.12 h -0.06 v -0.18 h -0.06 v -0.06 c 0,-0.1 0,-0.2 0,-0.3 v -0.06 -0.36 l 0.06,-0.06 v -0.18 h 0.06 v -0.12 h 0.06 v -0.12 h 0.06 v -0.06 h 0.06 v -0.06 h 0.06 v -0.12 h 0.06 l 0.06,-0.06 h 0.06 v -0.06 h 0.06 v -0.06 h 0.12 v -0.06 h 0.06 l 0.06,-0.06 h 0.12 v -0.06 h 0.36 v -0.06 h 0.12 0.18 v 0.06 h 0.3 v 0.06 h 0.18 v 0.06 h 0.12 v 0.06 h 0.06 l 0.06,0.06 h 0.06 v 0.06 h 0.06 v 0.06 h 0.06 v 0.06 h 0.06 v 0.06 h 0.06 v 0.06 l 0.06,0.06 v 0.06 h 0.06 v 0.12 h 0.06 v 0.18 h 0.06 v 0.24 h 0.06 v 0.24 0.24 h -0.06 v 0.3 h -0.06 v 0.12 l -0.06,0.06 v 0.06 h -0.06 v 0.12 h -0.06 v 0.06 h -0.06 v 0.06 l -0.06,0.06 -0.06,0.06 h -0.06 v 0.06 h -0.06 v 0.06 h -0.06 l -0.06,0.06 h -0.06 l -0.06,0.06 h -0.12 v 0.06 h -0.18 l -0.06,0.06 h -0.3"
     id="path38" />
  <path
     stroke-width="0.24"
     stroke-linecap="round"
     stroke-linejoin="round"
     fill="none"
     stroke="#000000"
     d="m 478.1518,403.454 h -0.06 c -0.14,0 -0.28,0 -0.42,0 h -0.06 v 0.06 h -0.18 l -0.06,0.06 h -0.12 v 0.06 h -0.12 l -0.06,0.06 h -0.06 v 0.06 h -0.12 v 0.06 h -0.06 l -0.12,0.12 h -0.06 v 0.06 h -0.06 v 0.06 h -0.06 v 0.06 h -0.06 v 0.06 h -0.06 v 0.06 h -0.06 v 0.06 l -0.06,0.06 v 0.06 h -0.06 v 0.06 l -0.06,0.06 v 0.06 l -0.06,0.06 v 0.06 l -0.06,0.06 v 0.12 h -0.06 v 0.18 l -0.06,0.06 v 0.3 h -0.06 v 0.24 0.24 l 0.06,0.06 v 0.3 h 0.06 v 0.18 h 0.06 v 0.18 h 0.06 v 0.12 h 0.06 v 0.12 h 0.06 v 0.06 l 0.06,0.06 v 0.06 h 0.06 v 0.06 h 0.06 v 0.06 l 0.24,0.24 h 0.06 v 0.06 h 0.06 v 0.06 h 0.06 l 0.06,0.06 h 0.06 v 0.06 h 0.12 v 0.06 h 0.12 v 0.06 h 0.12 l 0.06,0.06 h 0.12 l 0.06,0.06 h 0.24 l 0.06,0.06 h 0.3 0.3 v -0.06 h 0.3 v -0.06 h 0.18 v -0.06 h 0.12 v -0.06 h 0.06 v -0.06 h 0.12 v -0.06 h 0.06 v -0.06 h 0.06 v -0.06 h 0.06 v -0.06 h 0.06 l 0.18,-0.3 v 0.72 h 0.9 v -4.26 h -0.9 v 0.66 l -0.18,-0.24 -0.06,-0.06 v -0.06 h -0.06 v -0.06 h -0.06 l -0.06,-0.06 h -0.06 v -0.06 h -0.06 v -0.06 h -0.12 v -0.06 h -0.12 v -0.06 h -0.24 v -0.06 h -0.06 c -0.12,0 -0.24,0 -0.36,0 h -0.06"
     id="path39" />
  <path
     stroke-width="0.24"
     stroke-linecap="round"
     stroke-linejoin="round"
     fill="none"
     stroke="#000000"
     d="m 478.2718,407.174 h -0.3 v -0.06 h -0.24 v -0.06 h -0.12 v -0.06 h -0.12 v -0.06 h -0.12 v -0.06 h -0.06 v -0.06 h -0.06 v -0.06 h -0.06 v -0.06 h -0.06 v -0.06 h -0.06 v -0.06 l -0.06,-0.06 v -0.06 h -0.06 v -0.12 h -0.06 v -0.18 h -0.06 v -0.36 h -0.06 v -0.12 -0.06 h 0.06 v -0.36 l 0.06,-0.06 v -0.12 h 0.06 v -0.12 l 0.06,-0.06 v -0.06 h 0.06 v -0.12 h 0.06 v -0.06 h 0.06 v -0.06 h 0.06 v -0.06 h 0.06 v -0.06 h 0.12 v -0.06 h 0.06 v -0.06 h 0.12 v -0.06 h 0.18 v -0.06 h 0.3 l 0.06,-0.06 h 0.12 0.12 l 0.06,0.06 h 0.3 v 0.06 h 0.18 v 0.06 h 0.06 l 0.06,0.06 h 0.06 v 0.06 h 0.12 v 0.06 h 0.06 v 0.06 h 0.06 v 0.06 h 0.06 v 0.06 l 0.06,0.06 v 0.06 h 0.06 v 0.12 h 0.06 v 0.12 h 0.06 v 0.18 h 0.06 v 0.06 c 0,0.1 0,0.2 0,0.3 v 0.06 0.42 l -0.06,0.06 v 0.12 l -0.06,0.06 v 0.12 h -0.06 v 0.06 h -0.06 v 0.12 h -0.06 v 0.06 h -0.06 v 0.06 h -0.06 v 0.06 h -0.06 v 0.06 h -0.06 v 0.06 h -0.12 v 0.06 h -0.12 v 0.06 h -0.12 v 0.06 h -0.24 v 0.06 h -0.3"
     id="path40" />
  <path
     stroke-width="0.24"
     stroke-linecap="round"
     stroke-linejoin="round"
     fill="none"
     stroke="#000000"
     d="m 466.8718,403.454 h -0.06 c -0.14,0 -0.28,0 -0.42,0 h -0.06 v 0.06 h -0.18 l -0.06,0.06 h -0.12 v 0.06 h -0.12 l -0.06,0.06 h -0.06 v 0.06 h -0.12 v 0.06 h -0.06 l -0.12,0.12 h -0.06 v 0.06 h -0.06 v 0.06 h -0.06 v 0.06 h -0.06 v 0.06 h -0.06 v 0.06 h -0.06 v 0.06 l -0.06,0.06 v 0.06 h -0.06 v 0.06 l -0.06,0.06 v 0.06 l -0.06,0.06 v 0.06 l -0.06,0.06 v 0.12 h -0.06 v 0.18 l -0.06,0.06 v 0.3 l -0.06,0.06 v 0.18 0.24 h 0.06 v 0.36 h 0.06 v 0.18 h 0.06 v 0.18 h 0.06 v 0.12 h 0.06 v 0.12 h 0.06 v 0.06 l 0.06,0.06 v 0.06 h 0.06 v 0.06 h 0.06 v 0.06 l 0.24,0.24 h 0.06 v 0.06 h 0.06 v 0.06 h 0.06 l 0.06,0.06 h 0.06 v 0.06 h 0.12 v 0.06 h 0.12 v 0.06 h 0.12 l 0.06,0.06 h 0.12 l 0.06,0.06 h 0.24 l 0.06,0.06 h 0.3 0.3 v -0.06 h 0.3 v -0.06 h 0.18 v -0.06 h 0.12 v -0.06 h 0.06 v -0.06 h 0.12 v -0.06 h 0.06 v -0.06 h 0.06 v -0.06 h 0.06 v -0.06 h 0.06 l 0.18,-0.3 v 0.72 h 0.9 v -4.26 h -0.9 v 0.66 l -0.18,-0.24 -0.06,-0.06 v -0.06 h -0.06 v -0.06 h -0.06 l -0.06,-0.06 h -0.06 v -0.06 h -0.06 v -0.06 h -0.12 v -0.06 h -0.12 v -0.06 h -0.24 v -0.06 h -0.06 c -0.12,0 -0.24,0 -0.36,0 h -0.06"
     id="path41" />
  <path
     stroke-width="0.24"
     stroke-linecap="round"
     stroke-linejoin="round"
     fill="none"
     stroke="#000000"
     d="m 466.9918,407.174 h -0.3 v -0.06 h -0.24 v -0.06 h -0.12 v -0.06 h -0.12 v -0.06 h -0.12 v -0.06 h -0.06 v -0.06 h -0.06 v -0.06 h -0.06 v -0.06 h -0.06 v -0.06 h -0.06 v -0.06 l -0.06,-0.06 v -0.06 h -0.06 v -0.12 h -0.06 v -0.18 h -0.06 v -0.06 c 0,-0.1 0,-0.2 0,-0.3 v -0.06 h -0.06 v -0.06 -0.06 h 0.06 v -0.36 h 0.06 v -0.18 h 0.06 v -0.12 l 0.06,-0.06 v -0.06 h 0.06 v -0.06 l 0.06,-0.06 v -0.06 h 0.06 v -0.06 h 0.06 v -0.06 h 0.06 v -0.06 h 0.12 v -0.06 h 0.06 l 0.06,-0.06 h 0.06 v -0.06 h 0.18 v -0.06 h 0.3 l 0.06,-0.06 h 0.12 0.12 l 0.06,0.06 h 0.3 v 0.06 h 0.18 v 0.06 h 0.06 l 0.06,0.06 h 0.06 v 0.06 h 0.12 v 0.06 h 0.06 v 0.06 h 0.06 v 0.06 h 0.06 v 0.06 l 0.06,0.06 v 0.06 h 0.06 v 0.12 h 0.06 v 0.12 h 0.06 v 0.18 h 0.06 v 0.06 c 0,0.1 0,0.2 0,0.3 v 0.06 0.06 c 0,0.12 0,0.24 0,0.36 v 0.06 h -0.06 v 0.18 h -0.06 v 0.12 h -0.06 v 0.06 l -0.06,0.06 v 0.06 h -0.06 v 0.06 h -0.06 v 0.06 h -0.06 v 0.06 h -0.06 v 0.06 h -0.06 v 0.06 h -0.12 v 0.06 h -0.12 v 0.06 h -0.12 v 0.06 h -0.24 v 0.06 h -0.3"
     id="path42" />
  <path
     stroke-width="0.24"
     stroke-linecap="round"
     stroke-linejoin="round"
     fill="none"
     stroke="#000000"
     d="m 482.5318,403.634 v 3.18 l 1.8,-1.98 -1.8,-1.2"
     id="path43" />
  <path
     d="m 484.3318,404.834 -1.8,-1.2 v 3.18"
     fill="#7f807f"
     fill-rule="evenodd"
     id="path44"
     style="stroke-width:0.1" />
  <path
     stroke-width="0.06"
     stroke-linecap="round"
     stroke-linejoin="round"
     fill="none"
     stroke="#7f807f"
     d="m 484.3318,404.834 -1.8,-1.2 v 3.18 z"
     id="path45" />
  <path
     stroke-width="0.24"
     stroke-linecap="round"
     stroke-linejoin="round"
     fill="none"
     stroke="#000000"
     d="m 486.4918,403.634 -3.36,3.66 4.26,-2.7 -0.9,-0.96"
     id="path46" />
  <path
     d="m 487.3918,404.594 -0.9,-0.96 -3.36,3.66"
     fill="#7f807f"
     fill-rule="evenodd"
     id="path47"
     style="stroke-width:0.1" />
  <path
     stroke-width="0.06"
     stroke-linecap="round"
     stroke-linejoin="round"
     fill="none"
     stroke="#7f807f"
     d="m 487.3918,404.594 -0.9,-0.96 -3.36,3.66 z"
     id="path48" />
  <path
     stroke-width="0.24"
     stroke-linecap="round"
     stroke-linejoin="round"
     fill="none"
     stroke="#000000"
     d="m 483.8518,407.834 h 6.42 v -4.2 l -6.42,4.2"
     id="path49" />
  <path
     d="m 490.2718,403.634 -6.42,4.2 h 6.42"
     fill="#7f807f"
     fill-rule="evenodd"
     id="path50"
     style="stroke-width:0.1" />
  <path
     stroke-width="0.06"
     stroke-linecap="round"
     stroke-linejoin="round"
     fill="none"
     stroke="#7f807f"
     d="m 490.2718,403.634 -6.42,4.2 h 6.42 z"
     id="path51" />
  <path
     stroke-width="0.24"
     stroke-linecap="round"
     stroke-linejoin="round"
     fill="none"
     stroke="#000000"
     d="m 454.8118,396.974 h -0.48 l -0.06,0.06 h -0.18 l -0.06,0.06 h -0.12 v 0.06 h -0.12 v 0.06 h -0.12 v 0.06 h -0.12 v 0.06 h -0.06 l -0.06,0.06 h -0.06 v 0.06 h -0.06 v 0.06 h -0.06 v 0.06 h -0.06 v 0.06 h -0.06 v 0.06 h -0.06 v 0.06 h -0.06 v 0.06 h -0.06 v 0.12 h -0.06 v 0.06 h -0.06 v 0.12 h -0.06 v 0.12 h -0.06 v 0.12 l -0.06,0.06 v 0.18 h -0.06 v 0.3 h -0.06 v 0.3 0.3 l 0.06,0.06 v 0.3 h 0.06 v 0.18 h 0.06 v 0.12 h 0.06 v 0.12 h 0.06 v 0.12 h 0.06 v 0.12 h 0.06 v 0.06 h 0.06 v 0.06 h 0.06 v 0.12 h 0.06 v 0.06 h 0.06 v 0.06 h 0.06 v 0.06 h 0.12 v 0.06 h 0.06 v 0.06 h 0.06 v 0.06 h 0.12 v 0.06 h 0.12 v 0.06 h 0.12 v 0.06 h 0.12 v 0.06 h 0.18 v 0.06 h 0.3 v 0.06 h 0.36 0.3 l 0.06,-0.06 h 0.24 v -0.06 h 0.18 v -0.06 h 0.06 l 0.06,-0.06 h 0.06 v -0.06 h 0.06 v -0.06 h 0.12 v -0.06 h 0.06 v -0.06 h 0.06 v -0.06 l 0.24,-0.3 v 0.72 h 0.9 v -5.64 h -0.9 v 1.98 l -0.18,-0.24 h -0.06 v -0.06 h -0.06 v -0.06 h -0.06 v -0.06 h -0.12 v -0.06 h -0.06 l -0.06,-0.06 h -0.06 v -0.06 h -0.18 v -0.06 h -0.18 v -0.06 h -0.06 c -0.12,0 -0.24,0 -0.36,0 h -0.06"
     id="path52" />
  <path
     stroke-width="0.24"
     stroke-linecap="round"
     stroke-linejoin="round"
     fill="none"
     stroke="#000000"
     d="m 454.9318,400.694 h -0.36 v -0.06 h -0.18 v -0.06 h -0.18 v -0.06 h -0.06 l -0.06,-0.06 h -0.06 v -0.06 h -0.06 v -0.06 h -0.06 l -0.06,-0.06 v -0.06 h -0.06 v -0.06 h -0.06 v -0.06 h -0.06 v -0.12 h -0.06 v -0.12 h -0.06 v -0.12 l -0.06,-0.06 v -0.24 l -0.06,-0.06 v -0.18 -0.18 h 0.06 v -0.3 h 0.06 v -0.18 h 0.06 v -0.12 h 0.06 v -0.06 h 0.06 v -0.12 h 0.06 v -0.06 h 0.06 v -0.06 h 0.06 v -0.06 h 0.06 v -0.06 h 0.12 v -0.06 h 0.06 l 0.06,-0.06 h 0.06 v -0.06 h 0.18 v -0.06 h 0.06 c 0.1,0 0.2,0 0.3,0 h 0.06 v -0.06 h 0.06 0.06 v 0.06 h 0.36 v 0.06 h 0.18 v 0.06 h 0.12 v 0.06 h 0.12 v 0.06 h 0.06 v 0.06 h 0.06 l 0.18,0.18 v 0.06 h 0.06 v 0.06 h 0.06 v 0.12 h 0.06 v 0.12 h 0.06 v 0.18 l 0.06,0.06 v 0.36 0.06 c 0,0.1 0,0.2 0,0.3 v 0.06 h -0.06 v 0.18 h -0.06 v 0.12 l -0.06,0.06 v 0.06 h -0.06 v 0.12 h -0.06 v 0.06 h -0.06 v 0.06 h -0.06 v 0.06 h -0.06 v 0.06 h -0.06 v 0.06 h -0.12 v 0.06 h -0.12 v 0.06 h -0.12 v 0.06 h -0.24 v 0.06 h -0.3"
     id="path53" />
  <path
     stroke-width="0.24"
     stroke-linecap="round"
     stroke-linejoin="round"
     fill="none"
     stroke="#000000"
     d="m 460.5118,396.974 h -0.06 c -0.14,0 -0.28,0 -0.42,0 h -0.06 v 0.06 h -0.24 v 0.06 h -0.18 v 0.06 h -0.12 l -0.06,0.06 h -0.06 l -0.06,0.06 h -0.06 l -0.06,0.06 h -0.06 v 0.06 h -0.06 v 0.06 h -0.12 v 0.06 h -0.06 v 0.06 h -0.06 v 0.06 h -0.06 v 0.06 h -0.06 v 0.06 h -0.06 v 0.06 h -0.06 v 0.06 l -0.06,0.06 v 0.06 h -0.06 v 0.06 l -0.06,0.06 v 0.06 l -0.06,0.06 v 0.06 l -0.06,0.06 v 0.12 h -0.06 v 0.18 l -0.06,0.06 v 0.42 h -0.06 v 0.06 0.06 h 0.06 v 0.06 c 0,0.12 0,0.24 0,0.36 v 0.06 h 0.06 v 0.18 l 0.06,0.06 v 0.12 h 0.06 v 0.12 h 0.06 v 0.12 h 0.06 v 0.06 l 0.06,0.06 v 0.06 h 0.06 v 0.06 h 0.06 v 0.06 h 0.06 v 0.06 l 0.06,0.06 0.18,0.18 h 0.06 v 0.06 h 0.06 v 0.06 h 0.12 v 0.06 h 0.06 l 0.06,0.06 h 0.06 l 0.06,0.06 h 0.12 v 0.06 h 0.12 v 0.06 h 0.24 v 0.06 h 0.3 v 0.06 h 0.36 0.36 v -0.06 h 0.3 l 0.06,-0.06 h 0.18 v -0.06 h 0.12 l 0.06,-0.06 h 0.06 l 0.06,-0.06 h 0.06 l 0.06,-0.06 h 0.06 v -0.06 h 0.12 v -0.06 h 0.06 v -0.06 h 0.06 l 0.12,-0.12 h 0.06 v -0.06 h 0.06 v -0.06 l 0.06,-0.06 0.06,-0.06 v -0.06 h 0.06 v -0.06 h 0.06 v -0.12 h 0.06 v -0.12 h 0.06 v -0.12 h 0.06 v -0.12 h 0.06 v -0.18 l 0.06,-0.06 v -0.3 h 0.06 v -0.24 -0.18 l -0.06,-0.06 v -0.3 h -0.06 v -0.18 l -0.06,-0.06 v -0.12 h -0.06 v -0.12 h -0.06 v -0.12 h -0.06 v -0.06 h -0.06 v -0.06 l -0.06,-0.06 v -0.06 h -0.06 v -0.06 h -0.06 v -0.06 h -0.06 v -0.06 h -0.06 v -0.06 h -0.06 v -0.06 h -0.06 v -0.06 h -0.06 l -0.06,-0.06 h -0.06 v -0.06 h -0.06 l -0.06,-0.06 h -0.06 l -0.06,-0.06 h -0.06 l -0.06,-0.06 h -0.06 l -0.06,-0.06 h -0.12 l -0.06,-0.06 h -0.24 v -0.06 h -0.06 c -0.14,0 -0.28,0 -0.42,0 h -0.06"
     id="path54" />
  <path
     stroke-width="0.24"
     stroke-linecap="round"
     stroke-linejoin="round"
     fill="none"
     stroke="#000000"
     d="m 460.5118,400.694 h -0.36 v -0.06 h -0.18 v -0.06 h -0.18 v -0.06 h -0.06 l -0.06,-0.06 h -0.06 v -0.06 h -0.06 l -0.06,-0.06 h -0.06 v -0.06 h -0.06 v -0.06 l -0.12,-0.12 v -0.06 h -0.06 v -0.12 h -0.06 v -0.12 h -0.06 v -0.18 h -0.06 v -0.06 c 0,-0.1 0,-0.2 0,-0.3 v -0.06 -0.36 l 0.06,-0.06 v -0.12 l 0.06,-0.06 v -0.12 h 0.06 v -0.06 l 0.06,-0.06 v -0.06 h 0.06 v -0.06 h 0.06 v -0.06 h 0.06 v -0.06 h 0.06 v -0.06 h 0.06 v -0.06 h 0.12 v -0.06 h 0.06 v -0.06 h 0.12 l 0.06,-0.06 h 0.12 l 0.06,-0.06 h 0.36 v -0.06 h 0.06 0.06 v 0.06 h 0.06 c 0.1,0 0.2,0 0.3,0 h 0.06 v 0.06 h 0.12 l 0.06,0.06 h 0.12 v 0.06 h 0.06 l 0.06,0.06 h 0.06 v 0.06 h 0.06 v 0.06 h 0.06 v 0.06 h 0.06 v 0.06 h 0.06 v 0.06 h 0.06 v 0.06 h 0.06 v 0.12 h 0.06 v 0.12 h 0.06 v 0.18 h 0.06 v 0.36 h 0.06 v 0.06 0.06 h -0.06 v 0.36 l -0.06,0.06 v 0.12 l -0.06,0.06 v 0.06 l -0.06,0.06 v 0.06 h -0.06 v 0.12 h -0.06 v 0.06 h -0.06 v 0.06 h -0.06 v 0.06 h -0.06 v 0.06 h -0.12 v 0.06 h -0.06 v 0.06 h -0.12 v 0.06 h -0.12 l -0.06,0.06 h -0.18 v 0.06 h -0.36"
     id="path55" />
  <path
     d="m 460.5118,396.974 h -0.06 c -0.14,0 -0.28,0 -0.42,0 h -0.06 v 0.06 h -0.24 v 0.06 h -0.18 v 0.06 h -0.12 l -0.06,0.06 h -0.06 l -0.06,0.06 h -0.06 l -0.06,0.06 h -0.06 v 0.06 h -0.06 v 0.06 h -0.12 v 0.06 h -0.06 v 0.06 h -0.06 v 0.06 h -0.06 v 0.06 h -0.06 v 0.06 h -0.06 v 0.06 h -0.06 v 0.06 l -0.06,0.06 v 0.06 h -0.06 v 0.06 l -0.06,0.06 v 0.06 l -0.06,0.06 v 0.06 l -0.06,0.06 v 0.12 h -0.06 v 0.18 l -0.06,0.06 v 0.42 h -0.06 v 0.12 h 0.06 v 0.06 c 0,0.12 0,0.24 0,0.36 v 0.06 h 0.06 v 0.18 l 0.06,0.06 v 0.12 h 0.06 v 0.12 h 0.06 v 0.12 h 0.06 v 0.06 l 0.06,0.06 v 0.06 h 0.06 v 0.06 h 0.06 v 0.06 h 0.06 v 0.06 l 0.06,0.06 0.18,0.18 h 0.06 v 0.06 h 0.06 v 0.06 h 0.12 v 0.06 h 0.06 l 0.06,0.06 h 0.06 l 0.06,0.06 h 0.12 v 0.06 h 0.12 v 0.06 h 0.24 v 0.06 h 0.3 v 0.06 h 0.06 c 0.2,0 0.4,0 0.6,0 h 0.06 v -0.06 h 0.3 l 0.06,-0.06 h 0.18 v -0.06 h 0.12 l 0.06,-0.06 h 0.06 l 0.06,-0.06 h 0.06 l 0.06,-0.06 h 0.06 v -0.06 h 0.12 v -0.06 h 0.06 v -0.06 h 0.06 l 0.12,-0.12 h 0.06 v -0.06 h 0.06 v -0.06 l 0.06,-0.06 0.06,-0.06 v -0.06 h 0.06 v -0.06 h 0.06 v -0.12 h 0.06 v -0.12 h 0.06 v -0.12 h 0.06 v -0.12 h 0.06 v -0.18 l 0.06,-0.06 v -0.3 h 0.06 v -0.06 c 0.031,-0.599 -0.084,-0.202 -0.06,-0.66 v -0.06 h -0.06 v -0.18 l -0.06,-0.06 v -0.12 h -0.06 v -0.12 h -0.06 v -0.12 h -0.06 v -0.06 h -0.06 v -0.06 l -0.06,-0.06 v -0.06 h -0.06 v -0.06 h -0.06 v -0.06 h -0.06 v -0.06 h -0.06 v -0.06 h -0.06 v -0.06 h -0.06 v -0.06 h -0.06 l -0.06,-0.06 h -0.06 v -0.06 h -0.06 l -0.06,-0.06 h -0.06 l -0.06,-0.06 h -0.06 l -0.06,-0.06 h -0.06 l -0.06,-0.06 h -0.12 l -0.06,-0.06 h -0.24 v -0.06 h -0.06 c -0.14,0 -0.28,0 -0.42,0 z m 0,3.72 h -0.36 v -0.06 h -0.18 v -0.06 h -0.18 v -0.06 h -0.06 l -0.06,-0.06 h -0.06 v -0.06 h -0.06 l -0.06,-0.06 h -0.06 v -0.06 h -0.06 v -0.06 l -0.12,-0.12 v -0.06 h -0.06 v -0.12 h -0.06 v -0.12 h -0.06 v -0.18 h -0.06 v -0.12 c 0,-0.12 0,-0.24 0,-0.36 v -0.3 l 0.06,-0.06 v -0.12 l 0.06,-0.06 v -0.12 h 0.06 v -0.06 l 0.06,-0.06 v -0.06 h 0.06 v -0.06 h 0.06 v -0.06 h 0.06 v -0.06 h 0.06 v -0.06 h 0.06 v -0.06 h 0.12 v -0.06 h 0.06 v -0.06 h 0.12 l 0.06,-0.06 h 0.12 l 0.06,-0.06 h 0.36 v -0.06 h 0.12 v 0.06 h 0.06 c 0.1,0 0.2,0 0.3,0 h 0.06 v 0.06 h 0.12 l 0.06,0.06 h 0.12 v 0.06 h 0.06 l 0.06,0.06 h 0.06 v 0.06 h 0.06 v 0.06 h 0.06 v 0.06 h 0.06 v 0.06 h 0.06 v 0.06 h 0.06 v 0.06 h 0.06 v 0.12 h 0.06 v 0.12 h 0.06 v 0.18 h 0.06 v 0.36 h 0.06 v 0.12 h -0.06 v 0.36 l -0.06,0.06 v 0.12 l -0.06,0.06 v 0.06 l -0.06,0.06 v 0.06 h -0.06 v 0.12 h -0.06 v 0.06 h -0.06 v 0.06 h -0.06 v 0.06 h -0.06 v 0.06 h -0.12 v 0.06 h -0.06 v 0.06 h -0.12 v 0.06 h -0.12 l -0.06,0.06 h -0.18 v 0.06 h -0.36"
     fill="#7f807f"
     fill-rule="evenodd"
     id="path56"
     style="stroke-width:0.1" />
  <path
     stroke-width="0.06"
     stroke-linecap="round"
     stroke-linejoin="round"
     fill="none"
     stroke="#7f807f"
     d="m 460.5118,396.974 h -0.06 c -0.14,0 -0.28,0 -0.42,0 h -0.06 v 0.06 h -0.24 v 0.06 h -0.18 v 0.06 h -0.12 l -0.06,0.06 h -0.06 l -0.06,0.06 h -0.06 l -0.06,0.06 h -0.06 v 0.06 h -0.06 v 0.06 h -0.12 v 0.06 h -0.06 v 0.06 h -0.06 v 0.06 h -0.06 v 0.06 h -0.06 v 0.06 h -0.06 v 0.06 h -0.06 v 0.06 l -0.06,0.06 v 0.06 h -0.06 v 0.06 l -0.06,0.06 v 0.06 l -0.06,0.06 v 0.06 l -0.06,0.06 v 0.12 h -0.06 v 0.18 l -0.06,0.06 v 0.42 h -0.06 v 0.12 h 0.06 v 0.06 c 0,0.12 0,0.24 0,0.36 v 0.06 h 0.06 v 0.18 l 0.06,0.06 v 0.12 h 0.06 v 0.12 h 0.06 v 0.12 h 0.06 v 0.06 l 0.06,0.06 v 0.06 h 0.06 v 0.06 h 0.06 v 0.06 h 0.06 v 0.06 l 0.06,0.06 0.18,0.18 h 0.06 v 0.06 h 0.06 v 0.06 h 0.12 v 0.06 h 0.06 l 0.06,0.06 h 0.06 l 0.06,0.06 h 0.12 v 0.06 h 0.12 v 0.06 h 0.24 v 0.06 h 0.3 v 0.06 h 0.06 c 0.2,0 0.4,0 0.6,0 h 0.06 v -0.06 h 0.3 l 0.06,-0.06 h 0.18 v -0.06 h 0.12 l 0.06,-0.06 h 0.06 l 0.06,-0.06 h 0.06 l 0.06,-0.06 h 0.06 v -0.06 h 0.12 v -0.06 h 0.06 v -0.06 h 0.06 l 0.12,-0.12 h 0.06 v -0.06 h 0.06 v -0.06 l 0.06,-0.06 0.06,-0.06 v -0.06 h 0.06 v -0.06 h 0.06 v -0.12 h 0.06 v -0.12 h 0.06 v -0.12 h 0.06 v -0.12 h 0.06 v -0.18 l 0.06,-0.06 v -0.3 h 0.06 v -0.06 c 0.031,-0.599 -0.084,-0.202 -0.06,-0.66 v -0.06 h -0.06 v -0.18 l -0.06,-0.06 v -0.12 h -0.06 v -0.12 h -0.06 v -0.12 h -0.06 v -0.06 h -0.06 v -0.06 l -0.06,-0.06 v -0.06 h -0.06 v -0.06 h -0.06 v -0.06 h -0.06 v -0.06 h -0.06 v -0.06 h -0.06 v -0.06 h -0.06 v -0.06 h -0.06 l -0.06,-0.06 h -0.06 v -0.06 h -0.06 l -0.06,-0.06 h -0.06 l -0.06,-0.06 h -0.06 l -0.06,-0.06 h -0.06 l -0.06,-0.06 h -0.12 l -0.06,-0.06 h -0.24 v -0.06 h -0.06 c -0.14,0 -0.28,0 -0.42,0 z m 0,3.72 h -0.36 v -0.06 h -0.18 v -0.06 h -0.18 v -0.06 h -0.06 l -0.06,-0.06 h -0.06 v -0.06 h -0.06 l -0.06,-0.06 h -0.06 v -0.06 h -0.06 v -0.06 l -0.12,-0.12 v -0.06 h -0.06 v -0.12 h -0.06 v -0.12 h -0.06 v -0.18 h -0.06 v -0.12 c 0,-0.12 0,-0.24 0,-0.36 v -0.3 l 0.06,-0.06 v -0.12 l 0.06,-0.06 v -0.12 h 0.06 v -0.06 l 0.06,-0.06 v -0.06 h 0.06 v -0.06 h 0.06 v -0.06 h 0.06 v -0.06 h 0.06 v -0.06 h 0.06 v -0.06 h 0.12 v -0.06 h 0.06 v -0.06 h 0.12 l 0.06,-0.06 h 0.12 l 0.06,-0.06 h 0.36 v -0.06 h 0.12 v 0.06 h 0.06 c 0.1,0 0.2,0 0.3,0 h 0.06 v 0.06 h 0.12 l 0.06,0.06 h 0.12 v 0.06 h 0.06 l 0.06,0.06 h 0.06 v 0.06 h 0.06 v 0.06 h 0.06 v 0.06 h 0.06 v 0.06 h 0.06 v 0.06 h 0.06 v 0.06 h 0.06 v 0.12 h 0.06 v 0.12 h 0.06 v 0.18 h 0.06 v 0.36 h 0.06 v 0.12 h -0.06 v 0.36 l -0.06,0.06 v 0.12 l -0.06,0.06 v 0.06 l -0.06,0.06 v 0.06 h -0.06 v 0.12 h -0.06 v 0.06 h -0.06 v 0.06 h -0.06 v 0.06 h -0.06 v 0.06 h -0.12 v 0.06 h -0.06 v 0.06 h -0.12 v 0.06 h -0.12 l -0.06,0.06 h -0.18 v 0.06 z"
     id="path57" />
  <path
     stroke-width="0.24"
     stroke-linecap="round"
     stroke-linejoin="round"
     fill="none"
     stroke="#000000"
     d="m 474.1918,401.354 h 0.84 v -2.76 c 0,-0.1 0,-0.2 0,-0.3 v -0.06 h -0.06 v -0.18 l -0.06,-0.06 v -0.12 h -0.06 v -0.12 h -0.06 v -0.06 h -0.06 v -0.06 l -0.06,-0.06 v -0.06 h -0.06 v -0.06 h -0.06 v -0.06 h -0.06 v -0.06 h -0.12 v -0.06 h -0.06 v -0.06 h -0.12 v -0.06 h -0.12 v -0.06 h -0.12 l -0.06,-0.06 h -0.18 v -0.06 h -0.06 c -0.12,0 -0.24,0 -0.36,0 h -0.06 -0.06 c -0.14,0 -0.28,0 -0.42,0 h -0.06 v 0.06 h -0.24 v 0.06 h -0.18 v 0.06 h -0.12 v 0.06 h -0.12 v 0.06 h -0.06 v 0.06 h -0.06 v 0.06 h -0.06 l -0.06,0.06 h -0.06 v 0.12 h -0.06 v 0.06 h -0.06 l -0.06,0.12 -0.12,-0.12 h -0.06 v -0.06 l -0.06,-0.06 v -0.06 h -0.06 v -0.06 h -0.06 l -0.06,-0.06 h -0.06 v -0.06 h -0.06 v -0.06 h -0.12 v -0.06 h -0.12 v -0.06 h -0.18 v -0.06 h -0.18 v -0.06 h -0.06 c -0.12,0 -0.24,0 -0.36,0 h -0.06 -0.06 c -0.12,0 -0.24,0 -0.36,0 h -0.06 v 0.06 h -0.18 l -0.06,0.06 h -0.12 v 0.06 h -0.12 v 0.06 h -0.06 v 0.06 h -0.12 v 0.06 h -0.06 v 0.06 h -0.06 v 0.06 l -0.24,0.24 v -0.6 h -0.9 v 4.26 h 0.9 v -2.4 -0.24 h 0.06 v -0.24 h 0.06 v -0.12 h 0.06 v -0.12 h 0.06 v -0.06 h 0.06 v -0.06 h 0.06 v -0.06 h 0.06 v -0.06 h 0.06 v -0.06 h 0.12 v -0.06 h 0.12 v -0.06 h 0.18 v -0.06 h 0.36 0.06 c 0.1,0 0.2,0 0.3,0 h 0.06 v 0.06 h 0.12 l 0.06,0.06 h 0.06 v 0.06 h 0.12 v 0.06 h 0.06 v 0.06 h 0.06 v 0.06 h 0.06 v 0.12 h 0.06 v 0.12 h 0.06 v 0.18 h 0.06 v 0.06 c 0,0.1 0,0.2 0,0.3 v 0.06 2.4 h 0.9 v -2.4 -0.24 h 0.06 v -0.24 h 0.06 v -0.12 h 0.06 v -0.12 h 0.06 v -0.06 h 0.06 v -0.06 h 0.06 v -0.06 h 0.06 v -0.06 h 0.06 v -0.06 h 0.12 v -0.06 h 0.12 v -0.06 h 0.18 v -0.06 h 0.36 0.06 c 0.1,0 0.2,0 0.3,0 h 0.06 v 0.06 h 0.12 l 0.06,0.06 h 0.06 v 0.06 h 0.12 v 0.06 h 0.06 v 0.06 h 0.06 v 0.06 h 0.06 v 0.12 h 0.06 v 0.12 h 0.06 v 0.12 h 0.06 v 0.06 c 0,0.1 0,0.2 0,0.3 v 0.06 h 0.06 v 0.06 2.4"
     id="path58" />
  <path
     stroke-width="0.24"
     stroke-linecap="round"
     stroke-linejoin="round"
     fill="none"
     stroke="#000000"
     d="m 478.1518,396.974 h -0.48 l -0.06,0.06 h -0.18 l -0.06,0.06 h -0.12 v 0.06 h -0.12 v 0.06 h -0.12 v 0.06 h -0.12 v 0.06 h -0.06 l -0.12,0.12 h -0.06 v 0.06 h -0.06 v 0.06 h -0.06 v 0.06 h -0.06 v 0.06 h -0.06 v 0.06 h -0.06 v 0.06 l -0.06,0.06 v 0.06 h -0.06 v 0.06 l -0.06,0.06 v 0.06 l -0.06,0.06 v 0.06 l -0.06,0.06 v 0.12 h -0.06 v 0.18 l -0.06,0.06 v 0.3 h -0.06 v 0.24 0.3 h 0.06 v 0.3 h 0.06 v 0.18 l 0.06,0.06 v 0.12 h 0.06 v 0.12 h 0.06 v 0.12 h 0.06 v 0.06 l 0.06,0.06 v 0.06 h 0.06 v 0.06 h 0.06 v 0.06 l 0.06,0.06 0.18,0.18 h 0.06 v 0.06 h 0.06 v 0.06 h 0.06 l 0.06,0.06 h 0.06 v 0.06 h 0.12 v 0.06 h 0.12 v 0.06 h 0.12 v 0.06 h 0.18 l 0.06,0.06 h 0.24 v 0.06 h 0.36 0.3 l 0.06,-0.06 h 0.24 v -0.06 h 0.18 v -0.06 h 0.12 v -0.06 h 0.06 v -0.06 h 0.12 v -0.06 h 0.06 v -0.06 h 0.06 v -0.06 h 0.06 v -0.06 h 0.06 l 0.18,-0.3 v 0.72 h 0.9 v -4.26 h -0.9 v 0.66 l -0.18,-0.24 h -0.06 v -0.06 l -0.12,-0.12 h -0.06 v -0.06 h -0.06 v -0.06 h -0.06 v -0.06 h -0.12 v -0.06 h -0.12 l -0.06,-0.06 h -0.18 v -0.06 h -0.06 c -0.12,0 -0.24,0 -0.36,0 h -0.06"
     id="path59" />
  <path
     stroke-width="0.24"
     stroke-linecap="round"
     stroke-linejoin="round"
     fill="none"
     stroke="#000000"
     d="m 478.2718,400.694 h -0.3 l -0.06,-0.06 h -0.18 v -0.06 h -0.12 l -0.06,-0.06 h -0.06 l -0.06,-0.06 h -0.06 v -0.06 h -0.06 v -0.06 h -0.06 v -0.06 h -0.06 v -0.06 h -0.06 v -0.06 h -0.06 v -0.06 l -0.06,-0.06 v -0.06 h -0.06 v -0.12 h -0.06 v -0.18 h -0.06 v -0.36 h -0.06 v -0.12 -0.12 h 0.06 v -0.3 l 0.06,-0.06 v -0.12 h 0.06 v -0.12 l 0.06,-0.06 v -0.06 h 0.06 v -0.12 h 0.06 v -0.06 h 0.06 v -0.06 h 0.06 v -0.06 h 0.06 l 0.06,-0.06 h 0.06 v -0.06 h 0.06 l 0.06,-0.06 h 0.06 l 0.06,-0.06 h 0.12 l 0.06,-0.06 h 0.36 v -0.06 h 0.06 0.06 v 0.06 h 0.36 l 0.06,0.06 h 0.12 l 0.06,0.06 h 0.06 v 0.06 h 0.12 v 0.06 h 0.06 l 0.06,0.06 h 0.06 v 0.06 h 0.06 v 0.06 h 0.06 v 0.06 l 0.06,0.06 v 0.06 h 0.06 v 0.12 h 0.06 v 0.12 h 0.06 v 0.18 h 0.06 v 0.06 c 0,0.1 0,0.2 0,0.3 v 0.06 0.42 l -0.06,0.06 v 0.12 l -0.06,0.06 v 0.12 h -0.06 v 0.06 h -0.06 v 0.12 h -0.06 v 0.06 h -0.06 v 0.06 h -0.06 v 0.06 h -0.06 v 0.06 h -0.06 v 0.06 h -0.12 v 0.06 h -0.06 l -0.06,0.06 h -0.12 v 0.06 h -0.18 l -0.06,0.06 h -0.3"
     id="path60" />
  <path
     stroke-width="0.24"
     stroke-linecap="round"
     stroke-linejoin="round"
     fill="none"
     stroke="#000000"
     d="m 463.8718,401.354 h 0.9 v -2.4 c 0,-0.12 0,-0.24 0,-0.36 v -0.06 h 0.06 v -0.12 h 0.06 v -0.12 h 0.06 v -0.12 h 0.06 v -0.06 h 0.06 v -0.06 h 0.06 v -0.06 h 0.06 v -0.06 h 0.06 l 0.06,-0.06 h 0.06 v -0.06 h 0.18 v -0.06 h 0.36 0.06 c 0.12,0 0.24,0 0.36,0 h 0.06 v 0.06 h 0.18 l 0.18,-0.78 h -0.06 v -0.06 h -0.06 c -0.14,0 -0.28,0 -0.42,0 h -0.06 -0.06 c -0.12,0 -0.24,0 -0.36,0 h -0.06 v 0.06 h -0.18 v 0.06 h -0.12 v 0.06 h -0.12 v 0.06 h -0.12 v 0.06 h -0.06 v 0.06 h -0.06 v 0.06 h -0.06 l -0.24,0.24 v -0.54 h -0.84 v 4.26"
     id="path61" />
  <path
     stroke-width="0.24"
     stroke-linecap="round"
     stroke-linejoin="round"
     fill="none"
     stroke="#000000"
     d="m 428.5918,399.314 v 2.28 h 0.06 v 0.12 h 0.06 v 0.12 h 0.06 v 0.06 h 0.06 v 0.06 h 0.06 v 0.06 h 0.12 v 0.06 h 0.12 v 0.06 h 0.24 1.92 0.3 v -0.06 h 0.12 v -0.06 h 0.06 l 0.06,-0.06 h 0.06 v -0.06 l 0.06,-0.06 v -0.06 h 0.06 v -0.12 h 0.06 v -0.18 h 0.06 v -0.12 -2.04 -0.06 h -0.06 v -0.24 h -0.06 v -0.12 h -0.06 v -0.06 h -0.06 v -0.06 h -0.06 v -0.06 h -0.06 v -0.06 h -0.06 l -0.06,-0.06 h -0.12 v -0.06 h -0.24 -1.92 -0.18 v 0.06 h -0.18 v 0.06 h -0.06 l -0.06,0.06 h -0.06 v 0.06 h -0.06 v 0.06 l -0.06,0.06 v 0.06 h -0.06 v 0.18 h -0.06 v 0.18"
     id="path62" />
  <path
     stroke-width="0.24"
     stroke-linecap="round"
     stroke-linejoin="round"
     fill="none"
     stroke="#000000"
     d="m 429.3718,401.354 h 1.91995 v -2.04024 h -1.91995 z"
     id="path63" />
  <path
     stroke-width="0.24"
     stroke-linecap="round"
     stroke-linejoin="round"
     fill="none"
     stroke="#000000"
     d="m 432.2518,415.394 v -10.62 h -3.54 v 0.78 h 0.9 v 9.84 h -1.8 v 0.78 h 6.54 v -0.78 h -2.1"
     id="path64" />
  <path
     d="m 434.3518,415.394 h -2.1 v -10.62 h -3.54 v 0.78 h 0.9 v 9.84 h -1.8 v 0.78 h 6.54"
     fill="#7f807f"
     fill-rule="evenodd"
     id="path65"
     style="stroke-width:0.1" />
  <path
     stroke-width="0.06"
     stroke-linecap="round"
     stroke-linejoin="round"
     fill="none"
     stroke="#7f807f"
     d="m 434.3518,415.394 h -2.1 v -10.62 h -3.54 v 0.78 h 0.9 v 9.84 h -1.8 v 0.78 h 6.54 z"
     id="path66" />
  <text
     xml:space="preserve"
     style="font-size:5.33333px;line-height:1.25;font-family:sans-serif"
     x="385.23059"
     y="427.90979"
     id="text68"><tspan
       sodipodi:role="line"
       id="tspan68"
       x="385.23059"
       y="427.90979"
       style="font-style:normal;font-variant:normal;font-weight:normal;font-stretch:normal;font-size:5.33333px;font-family:Arial;-inkscape-font-specification:Arial">AUS</tspan></text>
  <text
     xml:space="preserve"
     style="font-size:10.6667px;line-height:1.25;font-family:Arial;-inkscape-font-specification:Arial"
     x="373.56332"
     y="421.01547"
     id="text69"><tspan
       sodipodi:role="line"
       id="tspan69"
       x="373.56332"
       y="421.01547"
       style="font-size:10.6667px">1</tspan></text>
  <text
     xml:space="preserve"
     style="font-size:5.33333px;line-height:1.25;font-family:Arial;-inkscape-font-specification:Arial"
     x="434.46289"
     y="427.20267"
     id="text70"><tspan
       sodipodi:role="line"
       id="tspan70"
       x="434.46289"
       y="427.20267">STÖRUNG</tspan></text>
  <text
     xml:space="preserve"
     style="font-size:10.6667px;line-height:1.25;font-family:Arial;-inkscape-font-specification:Arial"
     x="373.38657"
     y="471.04327"
     id="text71"><tspan
       sodipodi:role="line"
       id="tspan71"
       x="373.38657"
       y="471.04327">2</tspan></text>
  <text
     xml:space="preserve"
     style="font-size:5.33333px;line-height:1.25;font-family:Arial;-inkscape-font-specification:Arial"
     x="376.12659"
     y="478.5563"
     id="text72"><tspan
       sodipodi:role="line"
       id="tspan72"
       x="376.12659"
       y="478.5563"
       style="font-size:5.33333px">AUTOMATIK</tspan></text>
  <text
     xml:space="preserve"
     style="font-size:10.6667px;line-height:1.25;font-family:Arial;-inkscape-font-specification:Arial"
     x="432.96033"
     y="471.13165"
     id="text73"><tspan
       sodipodi:role="line"
       id="tspan73"
       x="432.96033"
       y="471.13165">4</tspan></text>
  <text
     xml:space="preserve"
     style="font-size:5.33333px;line-height:1.25;font-family:Arial;-inkscape-font-specification:Arial"
     x="431.81125"
     y="478.20276"
     id="text74"><tspan
       sodipodi:role="line"
       id="tspan74"
       x="431.81125"
       y="478.20276"
       style="font-size:5.33333px">DAUERAUF</tspan></text>
  <text
     xml:space="preserve"
     style="font-size:10.6667px;line-height:1.25;font-family:Arial;-inkscape-font-specification:Arial"
     x="374.44724"
     y="520.62915"
     id="text75"><tspan
       sodipodi:role="line"
       id="tspan75"
       x="374.44724"
       y="520.62915">3</tspan></text>
  <text
     xml:space="preserve"
     style="font-size:5.33333px;line-height:1.25;font-family:Arial;-inkscape-font-specification:Arial"
     x="374.71237"
     y="528.14215"
     id="text76"><tspan
       sodipodi:role="line"
       id="tspan76"
       x="374.71237"
       y="528.14215"
       style="font-size:5.33333px">AUSGANG</tspan></text>
  <text
     xml:space="preserve"
     style="font-size:10.6667px;line-height:1.25;font-family:Arial;-inkscape-font-specification:Arial"
     x="433.57904"
     y="520.45239"
     id="text77"><tspan
       sodipodi:role="line"
       id="tspan77"
       x="433.57904"
       y="520.45239">5</tspan></text>
  <text
     xml:space="preserve"
     style="font-size:5.33333px;line-height:1.25;font-family:Arial;-inkscape-font-specification:Arial"
     x="433.66739"
     y="527.7002"
     id="text78"><tspan
       sodipodi:role="line"
       id="tspan78"
       x="433.66739"
       y="527.7002"
       style="font-size:5.33333px">TEILOFFEN</tspan></text>
</svg>
